<svg xmlns="http://www.w3.org/2000/svg" width="310.488" height="262.223" viewBox="0 0 310.488 262.223">
  <g id="Admin-bro" transform="translate(-18.75 -38.423)">
    <g id="freepik--background-simple--inject-2" transform="translate(23.914 38.423)">
      <path id="Path_181" data-name="Path 181" d="M227.685,41.978S178.851,27.6,130.617,56.685,57.822,140,36.726,183.525s-9.408,86.145,27.139,104.049S125.544,275.208,177,271.258s65.248,2.473,108.125-27.658,51.034-96.709,17.678-144.033S227.685,41.978,227.685,41.978Z" transform="translate(-26.265 -38.423)" fill="#00adb5"/>
      <path id="Path_182" data-name="Path 182" d="M227.685,41.978S178.851,27.6,130.617,56.685,57.822,140,36.726,183.525s-9.408,86.145,27.139,104.049S125.544,275.208,177,271.258s65.248,2.473,108.125-27.658,51.034-96.709,17.678-144.033S227.685,41.978,227.685,41.978Z" transform="translate(-26.265 -38.423)" fill="#fff" opacity="0.8"/>
    </g>
    <g id="freepik--Plants--inject-2" transform="translate(35.208 116.674)">
      <path id="Path_183" data-name="Path 183" d="M62.319,334.652s-16.468-35.078-12.891-36.088S60.5,303.138,60.5,303.138,38.5,244.166,44.2,239.592,60.53,258.427,60.53,258.427,49.168,222.306,50.5,208.563s15.77-.505,15.77-.505S54.713,158.746,65.45,156.2s10.378,56.426,10.378,56.426,3.524-42.2,7.825-30.5-4.74,50.834-4.74,50.834,5.9-13.217,9.175-1.017-6.516,61.512-6.516,61.512,8.324-8.131,9.1,2.034-17.233,41.686-17.233,41.686L63.25,338.209Z" transform="translate(-43.253 -156.119)" fill="#00adb5"/>
      <path id="Path_184" data-name="Path 184" d="M62.319,334.652s-16.468-35.078-12.891-36.088S60.5,303.138,60.5,303.138,38.5,244.166,44.2,239.592,60.53,258.427,60.53,258.427,49.168,222.306,50.5,208.563s15.77-.505,15.77-.505S54.713,158.746,65.45,156.2s10.378,56.426,10.378,56.426,3.524-42.2,7.825-30.5-4.74,50.834-4.74,50.834,5.9-13.217,9.175-1.017-6.516,61.512-6.516,61.512,8.324-8.131,9.1,2.034-17.233,41.686-17.233,41.686L63.25,338.209Z" transform="translate(-43.253 -156.119)" fill="#fff" opacity="0.6"/>
      <path id="Path_185" data-name="Path 185" d="M69.138,351.877s-13.723-24.4-11.183-28.981S68.121,329,68.121,329s-17.286-43.215-14.74-47.278,10.678,13.729,10.678,13.729-3.038-59.511,2.028-57.483,5.571,30.5,5.571,30.5-3.045-67.609,1.529-65.574,4.069,77.269,4.069,77.269S86.4,251.185,87.893,264.4s-11.688,48.807-11.688,48.807,12.739-27.964,14.288-13.191S80.3,342.184,80.3,342.184,84.875,331,84.875,337.1s-3.557,13.729-3.557,13.729" transform="translate(-46.561 -171.782)" fill="none" stroke="#263238" stroke-linecap="round" stroke-linejoin="round" stroke-width="1"/>
    </g>
    <g id="freepik--Calendar--inject-2" transform="translate(31.889 267.821)">
      <path id="Path_186" data-name="Path 186" d="M47.016,383.46,38.26,412.315H61.975L71,383.613Z" transform="translate(-38.26 -383.46)" fill="#495464" stroke="#263238" stroke-linecap="round" stroke-linejoin="round" stroke-width="1"/>
      <path id="Path_187" data-name="Path 187" d="M106.726,412.268H57.307L51.43,383.46h49.418Z" transform="translate(-42.674 -383.46)" fill="#fff" stroke="#263238" stroke-linecap="round" stroke-linejoin="round" stroke-width="1"/>
      <path id="Path_188" data-name="Path 188" d="M104.609,411.862H63.388L60.31,396.79h41.221Z" transform="translate(-45.65 -387.928)" fill="none" stroke="#263238" stroke-linecap="round" stroke-linejoin="round" stroke-width="1"/>
      <line id="Line_1" data-name="Line 1" x2="3.052" y2="14.946" transform="translate(18.204 8.922)" fill="none" stroke="#263238" stroke-linecap="round" stroke-linejoin="round" stroke-width="1"/>
      <line id="Line_2" data-name="Line 2" x2="3.052" y2="14.946" transform="translate(21.987 8.922)" fill="none" stroke="#263238" stroke-linecap="round" stroke-linejoin="round" stroke-width="1"/>
      <line id="Line_3" data-name="Line 3" x2="3.052" y2="14.946" transform="translate(25.77 8.922)" fill="none" stroke="#263238" stroke-linecap="round" stroke-linejoin="round" stroke-width="1"/>
      <line id="Line_4" data-name="Line 4" x2="3.052" y2="14.946" transform="translate(29.546 8.922)" fill="none" stroke="#263238" stroke-linecap="round" stroke-linejoin="round" stroke-width="1"/>
      <line id="Line_5" data-name="Line 5" x2="3.052" y2="14.946" transform="translate(33.329 8.922)" fill="none" stroke="#263238" stroke-linecap="round" stroke-linejoin="round" stroke-width="1"/>
      <line id="Line_6" data-name="Line 6" x2="3.052" y2="14.946" transform="translate(37.112 8.922)" fill="none" stroke="#263238" stroke-linecap="round" stroke-linejoin="round" stroke-width="1"/>
      <line id="Line_7" data-name="Line 7" x2="3.052" y2="14.946" transform="translate(40.888 8.922)" fill="none" stroke="#263238" stroke-linecap="round" stroke-linejoin="round" stroke-width="1"/>
      <line id="Line_8" data-name="Line 8" x2="3.052" y2="14.946" transform="translate(44.671 8.922)" fill="none" stroke="#263238" stroke-linecap="round" stroke-linejoin="round" stroke-width="1"/>
      <line id="Line_9" data-name="Line 9" x2="3.052" y2="14.946" transform="translate(48.448 8.922)" fill="none" stroke="#263238" stroke-linecap="round" stroke-linejoin="round" stroke-width="1"/>
      <line id="Line_10" data-name="Line 10" x2="3.052" y2="14.946" transform="translate(52.231 8.922)" fill="none" stroke="#263238" stroke-linecap="round" stroke-linejoin="round" stroke-width="1"/>
      <line id="Line_11" data-name="Line 11" x2="40.988" transform="translate(15.365 11.841)" fill="none" stroke="#263238" stroke-linecap="round" stroke-linejoin="round" stroke-width="1"/>
      <line id="Line_12" data-name="Line 12" x2="40.988" transform="translate(15.976 14.846)" fill="none" stroke="#263238" stroke-linecap="round" stroke-linejoin="round" stroke-width="1"/>
      <line id="Line_13" data-name="Line 13" x2="40.981" transform="translate(16.595 17.858)" fill="none" stroke="#263238" stroke-linecap="round" stroke-linejoin="round" stroke-width="1"/>
      <line id="Line_14" data-name="Line 14" x2="40.988" transform="translate(17.206 20.863)" fill="none" stroke="#263238" stroke-linecap="round" stroke-linejoin="round" stroke-width="1"/>
      <path id="Path_189" data-name="Path 189" d="M77.946,392.133h-18.3l-.293-1.463h18.3Z" transform="translate(-45.328 -385.876)" fill="#263238"/>
    </g>
    <g id="freepik--Character--inject-2" transform="translate(169.114 130.802)">
      <path id="Path_190" data-name="Path 190" d="M423.526,316H363.916a11.761,11.761,0,0,0-11.382,10.225l-7.313,64.643h69.809Z" transform="translate(-278.362 -223.832)" fill="#fff" stroke="#263238" stroke-linecap="round" stroke-linejoin="round" stroke-width="1"/>
      <path id="Path_191" data-name="Path 191" d="M454.914,316h0a9.767,9.767,0,0,0-9.454,8.5l-7.519,66.372h16.98l7.526-66.372a7.433,7.433,0,0,0-7.533-8.5Z" transform="translate(-309.437 -223.831)" fill="#495464" stroke="#263238" stroke-linecap="round" stroke-linejoin="round" stroke-width="1"/>
      <path id="Path_192" data-name="Path 192" d="M331.507,286.6a65.382,65.382,0,0,1-13.49,7.406c-8.464,3.524-11.868,4.587-11.868,4.587l2.347,80.979h61.445s-7.878-50.775-7.878-67.815.7-20.364.7-20.364l-20.211-5.173Z" transform="translate(-265.268 -213.851)" fill="#00adb5" stroke="#263238" stroke-linecap="round" stroke-linejoin="round" stroke-width="1"/>
      <path id="Path_193" data-name="Path 193" d="M311.638,291.92a368.336,368.336,0,0,0-3.4,41.487c-.352,20.8,3.643,48.534,3.643,48.534H266.86a121.669,121.669,0,0,0,11.881-33.708c3.324-16.841,5.984-45.389,6.688-45.742S310,293.3,311.638,291.92Z" transform="translate(-252.1 -215.761)" fill="#495464" stroke="#263238" stroke-linecap="round" stroke-linejoin="round" stroke-width="1"/>
      <path id="Path_194" data-name="Path 194" d="M301.26,391.9s-4.587-31.029-4.355-38.315,1.39-31.966,1.39-31.966" transform="translate(-262.167 -225.715)" fill="none" stroke="#616161" stroke-linecap="round" stroke-linejoin="round" stroke-width="1"/>
      <path id="Path_195" data-name="Path 195" d="M368.074,288.74s-5.758,26.441-6.23,48.188S359.85,381,359.85,381h36.4s.472-19.866,0-26.68-.472-5.405-.472-5.405l14.108,3.643s-9.055-43.608-10.7-48.421-.824-6.349-1.882-7.174S368.074,288.74,368.074,288.74Z" transform="translate(-283.266 -214.696)" fill="#495464" stroke="#263238" stroke-linecap="round" stroke-linejoin="round" stroke-width="1"/>
      <path id="Path_196" data-name="Path 196" d="M265.991,400.29a22.293,22.293,0,0,0,3.324,3.989c1.616,1.383,5.079.665,6.921,2.553s-.173,7.652-2.5,9.667c-3.989,3.437-1.875-6.994-1.875-6.994a15.777,15.777,0,0,1-4.6,2.161c-2.26.519-8.078-1.25-10.026-1.33s-4.654-.452-5.691-2.62,5.4-4.78,8.257-5.817A41.891,41.891,0,0,1,265.991,400.29Z" transform="translate(-246.929 -252.081)" fill="#fff" stroke="#263238" stroke-linecap="round" stroke-linejoin="round" stroke-width="1"/>
      <path id="Path_197" data-name="Path 197" d="M251.408,404.834a3.258,3.258,0,0,0-3.4,1.13c-1.33,1.749-3.989,9.647-3.211,11.169s2.792-.612,3.75-3.118a16.828,16.828,0,0,1,1.622-3.451s1.05.512,1.788-.858S253.443,406.284,251.408,404.834Z" transform="translate(-244.66 -253.568)" fill="#fff" stroke="#263238" stroke-linecap="round" stroke-linejoin="round" stroke-width="1"/>
      <path id="Path_198" data-name="Path 198" d="M257.961,402.6a3.218,3.218,0,0,0-4.022.665c-1.868,1.995-.585,10.378.406,12.945s2.866,2.247,3.145.665.6-9.474.7-11.3a9.44,9.44,0,0,0-.226-2.972Z" transform="translate(-247.45 -252.713)" fill="#fff" stroke="#263238" stroke-linecap="round" stroke-linejoin="round" stroke-width="1"/>
      <path id="Path_199" data-name="Path 199" d="M263.98,401.222a3.072,3.072,0,0,0-4.022.665c-1.855,2.108-.485,10.977.532,13.7s2.892,2.407,3.158.711.505-10.026.585-11.967A10.731,10.731,0,0,0,263.98,401.222Z" transform="translate(-249.48 -252.235)" fill="#fff" stroke="#263238" stroke-linecap="round" stroke-linejoin="round" stroke-width="1"/>
      <path id="Path_200" data-name="Path 200" d="M271.691,401.59s-1.549-3.464-4.076-2.892-3.324,3.989-2.859,9.175,1.436,9.308,2.846,9.454,2.945-2.985,3.225-7.034.7-6.469.7-6.469" transform="translate(-251.353 -251.527)" fill="#fff" stroke="#263238" stroke-linecap="round" stroke-linejoin="round" stroke-width="1"/>
      <rect id="Rectangle_134" data-name="Rectangle 134" width="15.671" height="24.054" transform="translate(37.152 113.822)" fill="#00adb5" stroke="#263238" stroke-linecap="round" stroke-linejoin="round" stroke-width="1"/>
      <rect id="Rectangle_135" data-name="Rectangle 135" width="2.885" height="11.13" transform="translate(43.196 106.815)" fill="#fff" stroke="#263238" stroke-linecap="round" stroke-linejoin="round" stroke-width="1"/>
      <rect id="Rectangle_136" data-name="Rectangle 136" width="6.735" height="8.796" transform="translate(40.995 120.557)" fill="#fff" stroke="#263238" stroke-linecap="round" stroke-linejoin="round" stroke-width="1"/>
      <line id="Line_15" data-name="Line 15" x2="9.208" transform="translate(39.898 131.966)" fill="none" stroke="#263238" stroke-linecap="round" stroke-linejoin="round" stroke-width="1"/>
      <line id="Line_16" data-name="Line 16" x2="11.821" transform="translate(38.522 133.888)" fill="none" stroke="#263238" stroke-linecap="round" stroke-linejoin="round" stroke-width="1"/>
      <path id="Path_201" data-name="Path 201" d="M330.987,280.114s-5.06,3.4-5.984,6.11-4.82,14.221-6.349,18.569-10.225,8.111-9.049,8.936,12.579,1.875,12.579,1.875,2.586,10.112,3.171,12.7,4.115,10.458,4.115,10.458,10.458-12.579,12.107-15.956a53.24,53.24,0,0,1,3.876-6.582s4.468,1.057,7.313,1.529,10.578,1.17,10.225-.12-4.228-6.934-5.758-12.459-.592-17.632-2.467-22.332a9.413,9.413,0,0,0-7.406-5.758C345.939,276.73,333.1,278.113,330.987,280.114Z" transform="translate(-266.389 -210.77)" fill="#00adb5" stroke="#263238" stroke-linecap="round" stroke-linejoin="round" stroke-width="1"/>
      <path id="Path_202" data-name="Path 202" d="M338.7,270.265a91.055,91.055,0,0,1,1.33,15.511c-.2,6.934-2.706,22.452-2.586,30.444a135.67,135.67,0,0,0,1.29,15.863s11.522-15.863,15.75-28.795a119.084,119.084,0,0,0,5.405-24.8c0-.824.233-19.979.233-19.979S347.873,271.322,338.7,270.265Z" transform="translate(-275.756 -204.564)" fill="#fff" stroke="#263238" stroke-linecap="round" stroke-linejoin="round" stroke-width="1"/>
      <path id="Path_203" data-name="Path 203" d="M360.635,266.641c.047-4.308.093-8.131.093-8.131s-12.22,12.812-21.388,11.755c0,0,.432,2.413.8,5.718a12.692,12.692,0,0,0,3.936,1.8c4.242.851,9-1.523,12.22-5.6C357.484,270.683,359.059,268.636,360.635,266.641Z" transform="translate(-276.392 -204.564)" fill="#495464" stroke="#263238" stroke-linecap="round" stroke-linejoin="round" stroke-width="1"/>
      <ellipse id="Ellipse_5" data-name="Ellipse 5" cx="11.695" cy="11.575" rx="11.695" ry="11.575" transform="translate(80.933)" fill="#495464" stroke="#263238" stroke-linecap="round" stroke-linejoin="round" stroke-width="1"/>
      <path id="Path_204" data-name="Path 204" d="M308.981,210.074s-6.276-1.7-7.313-5.093,2.719-15.292,14.939-21.388,23.429-2.719,28.349-1.363,8.49,3.909,11.715,12.9,3.391,15.956,2.374,19.347a48.283,48.283,0,0,1-2.207,5.944s-6.276.665-7.978-1.868-1.017-15.292-8.317-18.33-21.215-1.33-24.6,1.7A56.809,56.809,0,0,0,308.981,210.074Z" transform="translate(-263.711 -178.275)" fill="#495464" stroke="#263238" stroke-linecap="round" stroke-linejoin="round" stroke-width="1"/>
      <path id="Path_205" data-name="Path 205" d="M311.22,211.918a130.73,130.73,0,0,1,1.529,14.933c0,5.259,4.242,12.566,6.449,14.627s9.507,9,13.749,9.846,9-1.529,12.22-5.6,9.507-12.22,9.507-12.22a6.044,6.044,0,0,0,6.449-4.242c1.7-4.927.851-10.525-2.034-11.2s-4.92,2.713-4.92,2.713-2.38-9.162-5.432-13.749l-4.415-6.649,5.631-7.041a.718.718,0,0,0-.146-1.037h0a.725.725,0,0,0-.991.14l-5.512,7.094s-10.864-1.868-20.371,2.885S311.22,211.918,311.22,211.918Z" transform="translate(-266.967 -182.325)" fill="#fff" stroke="#263238" stroke-linecap="round" stroke-linejoin="round" stroke-width="1"/>
      <line id="Line_17" data-name="Line 17" x1="1.529" y2="2.041" transform="translate(77.602 39.146)" fill="none" stroke="#263238" stroke-linecap="round" stroke-linejoin="round" stroke-width="1"/>
      <path id="Path_206" data-name="Path 206" d="M332.16,253.535s.339,1.017,2.546,1.529a5.458,5.458,0,0,0,5.6-2.034" transform="translate(-273.985 -202.727)" fill="none" stroke="#263238" stroke-linecap="round" stroke-linejoin="round" stroke-width="1"/>
      <path id="Path_207" data-name="Path 207" d="M336,260.2a12.373,12.373,0,0,0,11.708-3.564s-1.523,6.449-4.581,7.639-3.225-2.041-3.225-2.041Z" transform="translate(-275.272 -203.937)" fill="none" stroke="#263238" stroke-linecap="round" stroke-linejoin="round" stroke-width="1"/>
      <path id="Path_208" data-name="Path 208" d="M345.18,240.952a11.728,11.728,0,0,1,10.691-2.885" transform="translate(-278.349 -197.611)" fill="none" stroke="#263238" stroke-linecap="round" stroke-linejoin="round" stroke-width="2"/>
      <path id="Path_209" data-name="Path 209" d="M324.729,240.886s-3.73-3.736-7.639-1.7" transform="translate(-268.935 -197.884)" fill="none" stroke="#263238" stroke-linecap="round" stroke-linejoin="round" stroke-width="2"/>
      <line id="Line_18" data-name="Line 18" x2="1.862" y2="1.868" transform="translate(46.972 40.456)" fill="none" stroke="#263238" stroke-linecap="round" stroke-linejoin="round" stroke-width="1"/>
      <path id="Path_210" data-name="Path 210" d="M343.39,227.411s5.06-5.831,12.373-.339" transform="translate(-277.749 -193.238)" fill="none" stroke="#263238" stroke-linecap="round" stroke-linejoin="round" stroke-width="1"/>
      <path id="Path_211" data-name="Path 211" d="M323.448,227.783a7.179,7.179,0,0,0-9.168.512" transform="translate(-267.993 -193.782)" fill="none" stroke="#263238" stroke-linecap="round" stroke-linejoin="round" stroke-width="1"/>
      <path id="Path_212" data-name="Path 212" d="M350.359,240.791a.824.824,0,1,1-.791-.791.824.824,0,0,1,.791.791Z" transform="translate(-279.532 -198.36)" fill="#263238"/>
      <path id="Path_213" data-name="Path 213" d="M321.169,239.708a.824.824,0,1,1-.824-.818.824.824,0,0,1,.824.818Z" transform="translate(-269.749 -197.988)" fill="#263238"/>
      <path id="Path_214" data-name="Path 214" d="M381.914,215.22s.585,7.639-.824,13.4l2.234.7s1.762-8.816.937-13.749Z" transform="translate(-290.384 -190.055)" fill="#00adb5" stroke="#263238" stroke-linecap="round" stroke-linejoin="round" stroke-width="1"/>
      <path id="Path_215" data-name="Path 215" d="M359.49,181.61a20.783,20.783,0,0,1,10.465,12.107c2.7,8.7,2.347,11.4,3.989,12.34s4.82,1.529,4.933-.585-.618-11.548-5.319-17.4C370.035,183.618,362.429,181.73,359.49,181.61Z" transform="translate(-283.145 -178.791)" fill="#00adb5" stroke="#263238" stroke-linecap="round" stroke-linejoin="round" stroke-width="1"/>
      <path id="Path_216" data-name="Path 216" d="M374.654,232.717c-3.384-1.037-7.1,1.33-8.311,5.259-1.117,3.637.306,7.347,3.191,8.716a44.373,44.373,0,0,1-9.275,14.474,3.145,3.145,0,0,0-2.207.558c-1.21.818-1.742,2.154-1.177,2.992s1.995.851,3.211.04,1.649-1.995,1.263-2.806a45.038,45.038,0,0,0,9.454-14.833c3.231.665,6.648-1.649,7.785-5.392C379.8,237.79,378.038,233.754,374.654,232.717Z" transform="translate(-282.193 -195.838)" fill="#00adb5" stroke="#263238" stroke-linecap="round" stroke-linejoin="round" stroke-width="1"/>
      <path id="Path_217" data-name="Path 217" d="M383.918,241.593a4.166,4.166,0,1,1-3-5.478A4.432,4.432,0,0,1,383.918,241.593Z" transform="translate(-288.585 -197.028)" fill="#00adb5" stroke="#263238" stroke-linecap="round" stroke-linejoin="round" stroke-width="1"/>
      <path id="Path_218" data-name="Path 218" d="M379.814,289.273s-3.291-8.224-3.989-9.753,5.053-10.578,5.984-11.874,2.7-3.989,2.7-4.581-6.7-7.174-8.111-8.231-3.756,1.33-3.756,1.33-6.11,8.111-6.11,9.049,2.932,3.876,2.932,3.876-4.581,6.582-3.989,9.168a11.416,11.416,0,0,0,2.939,4.82l3.291,12.692Z" transform="translate(-285.133 -203.241)" fill="#fff" stroke="#263238" stroke-linecap="round" stroke-linejoin="round" stroke-width="1"/>
      <path id="Path_219" data-name="Path 219" d="M371.51,273.868s3.989-3.171,3.643-4.109a1.5,1.5,0,0,0-1.522-.824" transform="translate(-287.173 -208.054)" fill="none" stroke="#263238" stroke-linecap="round" stroke-linejoin="round" stroke-width="1"/>
      <path id="Path_220" data-name="Path 220" d="M375.76,258.51c.352,0,10.691,6.815,10.458,7.978a10.313,10.313,0,0,1-.937,2.467" transform="translate(-288.598 -204.564)" fill="none" stroke="#263238" stroke-linecap="round" stroke-linejoin="round" stroke-width="1"/>
      <path id="Path_221" data-name="Path 221" d="M377.53,256.92s9.753,6.11,9.973,7.167a2.161,2.161,0,0,1-.7,1.882" transform="translate(-289.191 -204.031)" fill="none" stroke="#263238" stroke-linecap="round" stroke-linejoin="round" stroke-width="1"/>
      <path id="Path_222" data-name="Path 222" d="M379.12,255.33s10.225,6.934,9.973,7.978a7.24,7.24,0,0,1-1.29,2.347" transform="translate(-289.724 -203.498)" fill="none" stroke="#263238" stroke-linecap="round" stroke-linejoin="round" stroke-width="1"/>
      <path id="Path_223" data-name="Path 223" d="M381.25,305.36l-15.75,9.069s20.451,48.654,24.214,55.236,13.869,8.111,19.161,6.349,7.872-12.34,6.11-16.807-14.461-23.994-20.564-33.754S381.25,305.36,381.25,305.36Z" transform="translate(-285.159 -220.266)" fill="#495464" stroke="#263238" stroke-linecap="round" stroke-linejoin="round" stroke-width="1"/>
      <path id="Path_224" data-name="Path 224" d="M376.67,344s17.286,33.243,21.714,39.891" transform="translate(-288.903 -233.216)" fill="none" stroke="#616161" stroke-linecap="round" stroke-linejoin="round" stroke-width="1"/>
      <line id="Line_19" data-name="Line 19" x2="24.38" y2="37.232" transform="translate(97.514 89.037)" fill="none" stroke="#616161" stroke-linecap="round" stroke-linejoin="round" stroke-width="1"/>
    </g>
    <g id="freepik--text-balloon--inject-2" transform="translate(112.628 147.171)">
      <path id="Path_225" data-name="Path 225" d="M257.9,226.5V205.1a3.112,3.112,0,0,0-3.112-3.112h-52.2a3.111,3.111,0,0,0-3.111,3.111v21.4a3.111,3.111,0,0,0,3.111,3.111h44.824l10.205,9.82L255.58,229.5a3.112,3.112,0,0,0,2.32-3Z" transform="translate(-173.032 -201.99)" fill="#fff" stroke="#263238" stroke-linecap="round" stroke-linejoin="round" stroke-width="1"/>
      <circle id="Ellipse_6" data-name="Ellipse 6" cx="2.334" cy="2.334" r="2.334" transform="translate(43.016 11.056)" fill="#495464"/>
      <path id="Path_286" data-name="Path 286" d="M2.334,0A2.334,2.334,0,1,1,0,2.334,2.334,2.334,0,0,1,2.334,0Z" transform="translate(53.321 11.056)" fill="#495464"/>
      <circle id="Ellipse_8" data-name="Ellipse 8" cx="2.334" cy="2.334" r="2.334" transform="translate(63.633 11.056)" fill="#495464"/>
      <path id="Path_226" data-name="Path 226" d="M194.625,228.116v-4.787l-5.033-1.117a13.056,13.056,0,0,0-1.15-2.792l2.759-4.348-3.377-3.384-4.348,2.766a12.486,12.486,0,0,0-2.786-1.15l-1.124-5.033h-4.787l-1.117,5.033a12.406,12.406,0,0,0-2.792,1.15l-4.322-2.766-3.384,3.384,2.719,4.322a12.406,12.406,0,0,0-1.15,2.792L159.7,223.3v4.787l5.033,1.124a12.486,12.486,0,0,0,1.15,2.812l-2.766,4.348,3.384,3.384,4.348-2.766a12.744,12.744,0,0,0,2.792,1.157l1.117,5.026h4.787l1.124-5.026a12.826,12.826,0,0,0,2.786-1.157l4.348,2.766,3.384-3.384-2.746-4.348a13.144,13.144,0,0,0,1.15-2.786Zm-17.439,3.79a6.183,6.183,0,1,1,6.183-6.183,6.183,6.183,0,0,1-6.183,6.183Z" transform="translate(-159.7 -204.095)" fill="#495464" stroke="#263238" stroke-linecap="round" stroke-linejoin="round" stroke-width="1"/>
    </g>
    <g id="freepik--Device--inject-2" transform="translate(19.25 214.6)">
      <rect id="Rectangle_137" data-name="Rectangle 137" width="109.966" height="4.435" transform="translate(196.078 82.328) rotate(180)" fill="#fff" stroke="#263238" stroke-linecap="round" stroke-linejoin="round" stroke-width="1"/>
      <rect id="Rectangle_138" data-name="Rectangle 138" width="95.845" height="4.435" transform="translate(165.069 82.328) rotate(180)" fill="#fff" stroke="#263238" stroke-linecap="round" stroke-linejoin="round" stroke-width="1"/>
      <path id="Path_227" data-name="Path 227" d="M115.6,373.412h91.7l-9.886-70h-91.7Z" transform="translate(-48.227 -303.41)" fill="#fff" stroke="#263238" stroke-linecap="round" stroke-linejoin="round" stroke-width="1"/>
      <path id="Path_228" data-name="Path 228" d="M109.886,373.412h91.7l-9.886-70H100Z" transform="translate(-46.313 -303.41)" fill="#495464" stroke="#263238" stroke-linecap="round" stroke-linejoin="round" stroke-width="1"/>
      <path id="Path_229" data-name="Path 229" d="M152.492,359.76l-9.2,44.864h23.662l9.2-44.864Zm16.049,13.3a.831.831,0,0,1-.818.665l-13.4-.133a.838.838,0,0,1-.8-1.03l1.21-5.033a.831.831,0,0,1,.818-.665l13.41.126a.838.838,0,0,1,.8,1.031Z" transform="translate(-60.822 -322.296)" fill="#fff" stroke="#263238" stroke-linecap="round" stroke-linejoin="round" stroke-width="1"/>
      <rect id="Rectangle_139" data-name="Rectangle 139" width="309.488" height="3.218" transform="translate(309.488 85.546) rotate(180)" fill="#495464" stroke="#263238" stroke-linecap="round" stroke-linejoin="round" stroke-width="1"/>
    </g>
    <g id="freepik--Icons--inject-2" transform="translate(84.849 67.985)">
      <path id="Path_230" data-name="Path 230" d="M341.978,104.671,340.023,99H320.39l1.775,33.243h45.649V104.671Z" transform="translate(-185.775 -88.287)" fill="none" stroke="#495464" stroke-linecap="round" stroke-linejoin="round" stroke-width="1"/>
      <path id="Path_231" data-name="Path 231" d="M378.1,133.647,382,103.19H351.08" transform="translate(-196.061 -89.692)" fill="none" stroke="#495464" stroke-linecap="round" stroke-linejoin="round" stroke-width="1"/>
      <circle id="Ellipse_9" data-name="Ellipse 9" cx="22.971" cy="22.971" r="22.971" transform="translate(0 44.727) rotate(-76.8)" fill="none" stroke="#495464" stroke-linecap="round" stroke-linejoin="round" stroke-width="1"/>
      <path id="Path_287" data-name="Path 287" d="M18.509,0A18.509,18.509,0,1,1,0,18.509,18.509,18.509,0,0,1,18.509,0Z" transform="matrix(0.233, -0.973, 0.973, 0.233, 5.31, 41.319)" fill="none" stroke="#495464" stroke-linecap="round" stroke-width="1"/>
      <path id="Path_232" data-name="Path 232" d="M160.667,123.183a2.453,2.453,0,1,1-2.453-2.453,2.453,2.453,0,0,1,2.453,2.453Z" transform="translate(-130.6 -95.57)" fill="none" stroke="#495464" stroke-linecap="round" stroke-linejoin="round" stroke-width="1"/>
      <line id="Line_20" data-name="Line 20" y2="4.581" transform="translate(27.54 10.493)" fill="none" stroke="#495464" stroke-linecap="round" stroke-linejoin="round" stroke-width="1"/>
      <line id="Line_21" data-name="Line 21" y2="4.574" transform="translate(27.54 40.245)" fill="none" stroke="#495464" stroke-linecap="round" stroke-linejoin="round" stroke-width="1"/>
      <line id="Line_22" data-name="Line 22" x2="3.231" y2="3.238" transform="translate(15.407 15.519)" fill="none" stroke="#495464" stroke-linecap="round" stroke-linejoin="round" stroke-width="1"/>
      <line id="Line_23" data-name="Line 23" x2="3.231" y2="3.238" transform="translate(36.443 36.555)" fill="none" stroke="#495464" stroke-linecap="round" stroke-linejoin="round" stroke-width="1"/>
      <line id="Line_24" data-name="Line 24" x2="4.574" transform="translate(10.381 27.66)" fill="none" stroke="#495464" stroke-linecap="round" stroke-linejoin="round" stroke-width="1"/>
      <line id="Line_25" data-name="Line 25" x2="4.574" transform="translate(40.126 27.66)" fill="none" stroke="#495464" stroke-linecap="round" stroke-linejoin="round" stroke-width="1"/>
      <line id="Line_26" data-name="Line 26" y1="3.238" x2="3.231" transform="translate(15.407 36.555)" fill="none" stroke="#495464" stroke-linecap="round" stroke-linejoin="round" stroke-width="1"/>
      <line id="Line_27" data-name="Line 27" y1="3.238" x2="3.231" transform="translate(36.443 15.519)" fill="none" stroke="#495464" stroke-linecap="round" stroke-linejoin="round" stroke-width="1"/>
      <line id="Line_28" data-name="Line 28" x1="6.775" transform="translate(18.385 27.613)" fill="none" stroke="#495464" stroke-linecap="round" stroke-linejoin="round" stroke-width="1"/>
      <line id="Line_29" data-name="Line 29" y1="8.942" transform="translate(27.614 16.218)" fill="none" stroke="#495464" stroke-linecap="round" stroke-linejoin="round" stroke-width="1"/>
      <path id="Path_288" data-name="Path 288" d="M0,0H52.743V33.688H0Z" transform="translate(65.045 10.713)" fill="none" stroke="#495464" stroke-linecap="round" stroke-width="1"/>
      <path id="Path_233" data-name="Path 233" d="M215.75,99l26.368,16.841L268.493,99" transform="translate(-150.705 -88.287)" fill="none" stroke="#495464" stroke-linecap="round" stroke-linejoin="round" stroke-width="1"/>
      <path id="Path_289" data-name="Path 289" d="M0,18.177,19.946,0" transform="translate(65.045 26.224)" fill="none" stroke="#495464" stroke-linecap="round" stroke-width="1"/>
      <path id="Path_290" data-name="Path 290" d="M19.946,18.177,0,0" transform="translate(97.589 26.224)" fill="none" stroke="#495464" stroke-linecap="round" stroke-width="1"/>
    </g>
  </g>
</svg>
