<svg xmlns="http://www.w3.org/2000/svg" width="340.646" height="278.282" viewBox="0 0 340.646 278.282">
  <g id="undraw_exams_g-4-ow" transform="translate(-0.001 -0.022)">
    <path id="Path_1" data-name="Path 1" d="M440.912,209.838v.631q-.055,5.469-.648,10.91a.389.389,0,0,1,0,.066c-.031.3-.066.6-.1.9-.059.509-.121,1.015-.191,1.525a109.68,109.68,0,0,1-4,18.3h0a98.661,98.661,0,0,1-10.432,22.971q-2.052,3.292-4.37,6.373h0c-.825,1.088-1.667,2.152-2.537,3.2q-.915,1.1-1.865,2.163l-.4.437a102.826,102.826,0,0,1-10.744,10.21,168.622,168.622,0,0,1-19.779,13.842c-.388.239-.78.475-1.171.693a.568.568,0,0,1-.087.052,208.584,208.584,0,0,1-28.8,14.719,130.627,130.627,0,0,1-33.541,9.094c-16.019,1.969-32.231.367-48.153-2.384a312.927,312.927,0,0,1-39.163-9.358l-2.114-.662q-1.643-.523-3.282-1.067-9.9-3.275-19.581-7.278a257.39,257.39,0,0,1-46.209-24.811q-2.773-1.865-5.465-3.812-3.764-2.71-7.437-5.58l-1.511-1.171A155.359,155.359,0,0,1,131.38,253.3a91.577,91.577,0,0,1-18.022-27.726q-.991-2.464-1.816-5.022l-.052-.17c-.277-.866-.534-1.733-.769-2.634q-.52-1.934-.911-3.916c-.055-.253-.1-.506-.149-.762a65.574,65.574,0,0,1-1.092-13.492,62.385,62.385,0,0,1,1.386-11.784h0a53.157,53.157,0,0,1,3.927-11.635h0a41.935,41.935,0,0,1,6.006-9.264h0a35.431,35.431,0,0,1,5.66-5.289,46.228,46.228,0,0,1,12.251-6.294h0c2.031-.728,4.09-1.365,6.159-1.958,1.466-.423,2.939-.825,4.4-1.22l4.325-1.168c2.773-.756,5.545-1.532,8.276-2.371a93.223,93.223,0,0,0,21.488-9.129c1.067-.648,2.156-1.359,3.244-2.121q2.079-1.445,4.1-3.14h0c1.366-1.144,2.7-2.367,3.979-3.663.2-.2.392-.4.586-.607,1.04-1.1,2.048-2.242,2.984-3.435.457-.582.9-1.175,1.324-1.778.586-.835,1.14-1.684,1.653-2.558h0a26.183,26.183,0,0,0,3.972-14.262,21.945,21.945,0,0,0-.225-2.5c-.451-3.06-.884-6.048-1.2-8.969-1.338-12.085-.773-23.044,8.3-33.34,11.278-12.8,28.977-15.409,45.089-14.386,46.583,2.946,88.99,29.542,126.257,61.205q4.835,4.1,9.552,8.318,1.189,1.061,2.381,2.135c5.892,5.306,11.693,10.81,17.1,16.7.437.478.873.957,1.3,1.438.263.3.53.593.79.894q2.527,2.859,4.9,5.857a110.96,110.96,0,0,1,11.2,16.982,96.407,96.407,0,0,1,9.836,30.038h0a107.034,107.034,0,0,1,1.189,11.5c.059,1.133.1,2.27.118,3.4v1.088C440.916,208.8,440.916,209.311,440.912,209.838Z" transform="translate(-108.55 -48.49)" fill="#3eb778" opacity="0.1"/>
    <path id="Path_2" data-name="Path 2" d="M383.525,446.126l-5.545,98.7,5.545.073,4.505-100.16Z" transform="translate(-246.981 -290.59)" fill="#3f3d56"/>
    <rect id="Rectangle_133" data-name="Rectangle 133" width="68.622" height="14.903" transform="translate(47.475 205.543)" fill="#00adb5"/>
    <path id="Path_3" data-name="Path 3" d="M308.862,679.51v9.357H237.977q-3.764-2.71-7.437-5.58V679.51Z" transform="translate(-188.26 -460.8)" fill="#3f3d56"/>
    <path id="Path_4" data-name="Path 4" d="M286.346,542.663c-.194.9-.447,1.785-.714,2.669a34.789,34.789,0,0,0-1.917,7.729c-.246,3.507.693,7.587-1.733,10.134-.624.659-1.438,1.151-2,1.854a3.255,3.255,0,0,0-.236.346,5.372,5.372,0,0,0-.565,2.773,48.518,48.518,0,0,0,.392,6.013c.821,6.862,2.443,13.738.312,20.216a31.153,31.153,0,0,1-1.348,3.3,25.763,25.763,0,0,0-2.513,7.022,44.236,44.236,0,0,0-.187,5.6q-1.643-.523-3.282-1.068-9.9-3.275-19.581-7.278c.017-.094.035-.191.049-.284.5-3.084-.184-6.238-1.009-9.247-1.733-6.374-4.187-12.685-5.639-19.1a48.344,48.344,0,0,1-1.147-7.625c-.042-.575-.066-1.154-.069-1.733-.017-.755,0-1.511.031-2.273.073-1.521.139-3.327-1.078-4.253a9.322,9.322,0,0,0-2.332-.894c-1.5-.586-2.533-1.944-3.726-3.033a4.883,4.883,0,0,0-4.363-1.282c-7.791,1.785-13.516,8.394-20.767,11.735-.281.132-.561.256-.846.374a12.323,12.323,0,0,0-2.658,1.359,3.029,3.029,0,0,0-1.192,1.681,6.289,6.289,0,0,0,.066,2.26,11.537,11.537,0,0,1-.156,3.684,11.242,11.242,0,0,1-.371,1.386c-.277.821-.648,1.625-1,2.426q-2.773-1.865-5.465-3.812-3.764-2.71-7.437-5.58l-1.487-1.2a155.358,155.358,0,0,1-17.959-16.494,62.791,62.791,0,0,0,2.319-6.145c.291-1.223.4-2.5.8-3.684a13.246,13.246,0,0,1,1.913-3.431,46.439,46.439,0,0,1,10.654-10.661c4.294-3.078,9.254-5.545,13.118-9.039a20.7,20.7,0,0,0,4.01-4.751,2.977,2.977,0,0,0,.184-.347,7.191,7.191,0,0,0,.62-1.982c.277-1.553.236-3.258.374-4.748a50.645,50.645,0,0,0,14.255.43c5.528-.62,10.934-2.156,16.462-2.752.416-.049.835-.087,1.255-.121,1.771-.142,3.545-.173,5.323-.152,1.487,0,2.974.066,4.46.114l16.369.555a16.069,16.069,0,0,1,5.351.794,11.7,11.7,0,0,1,4.894,4.076c.163.222.326.444.478.672a21.141,21.141,0,0,1,2.523,4.987c.066.18.128.347.187.544.156.482.291.967.412,1.459.094.385.177.769.253,1.158a49.707,49.707,0,0,0,1.21,5.736c.042.135.087.27.135.4.724,2.031,1.927,3.85,2.835,5.8a21.546,21.546,0,0,1,1.49,4.412A21.8,21.8,0,0,1,286.346,542.663Z" transform="translate(-151.59 -345.251)" fill="#495464"/>
    <path id="Path_5" data-name="Path 5" d="M269.784,259.111c-1.463-1.164-3.584-.312-5.3.44a33.99,33.99,0,0,1-4.422,1.6,1.868,1.868,0,0,1-.97.1c-.693-.166-.984-.988-1.5-1.487-.9-.863-2.367-.658-3.525-.191a8.045,8.045,0,0,1-3.542,1.04c-1.324-.1-2.475-1.081-3.812-1.112-2.357-.055-4.336,2.849-6.564,2.079-1.359-.468-2.426-2.235-3.764-1.733-1.04.4-1.133,1.833-1.761,2.773-.738,1.1-2.176,1.4-3.407,1.889a9.787,9.787,0,0,0-5.94,9.992c.281,2.284,1.386,4.377,2.118,6.557,2.17,6.339,1.424,13.489,4.159,19.6.347-.326.541-.447.877-.769a8.02,8.02,0,0,0-.468,5.753c.288.96.756,1.854,1.109,2.793a25.034,25.034,0,0,1,.887,3.223l3.015,13.3a86.369,86.369,0,0,1,2.565,15.721,45.881,45.881,0,0,1-.79,10.328c5.462-.9,10.46-3.327,15.994-3.3a44.588,44.588,0,0,1,6.058.624,124.714,124.714,0,0,0,17.72,1.2,7.034,7.034,0,0,0,2.717-.381,20.389,20.389,0,0,0,2.107-1.324,9.321,9.321,0,0,1,4.745-1.04c7.413-.135,14.556,2.578,21.921,3.535a26.393,26.393,0,0,0,.849-19.8,29.56,29.56,0,0,1-1.816-5.736,29.019,29.019,0,0,1-.083-3.684,26.724,26.724,0,0,0-1.674-9.212,9.471,9.471,0,0,1-.9-3.559,8.088,8.088,0,0,1,1.248-3.466,24.052,24.052,0,0,1,10.241-11.18l5.348-3.591c-.731-4.62-1.674-9.486-3.632-13.735a24.423,24.423,0,0,0-8.848-10.64,29.239,29.239,0,0,0-4.18-2.079,19.422,19.422,0,0,0-6.325-1.733c-2.5-.142-4.953.527-7.417.943C285.068,264.167,275.939,264.008,269.784,259.111Z" transform="translate(-184.782 -185.727)" fill="#00adb5"/>
    <path id="Path_6" data-name="Path 6" d="M254.142,488.583,251.6,491.8l-4.8,6.055-5.545,7-1.549,1.955h-3l-74.406.087-46.6.052H113.62c-.277-.866-.534-1.733-.769-2.634q-.52-1.934-.911-3.916c-.055-.253-.1-.506-.149-.762L128.7,488.576l6.356-.035h0l19.443-.111h0l10.858-.062h3.227l7.236-.038h0l55.154-.315h0l2.821-.017h1.223l3.24-.017,12.057-.069,2.315-.88.17.18Z" transform="translate(-110.666 -335.029)" fill="#3f3d56"/>
    <path id="Path_7" data-name="Path 7" d="M250.986,458.432l-.288.347-1.892,2.228-3.9,4.6-8.169,9.631-72.365-1.847L109.809,472c-.055-.253-.1-.506-.149-.762a65.575,65.575,0,0,1-1.092-13.492l6.051-3.1,1.386-.714,10.789-5.545,9.468-4.852,24.7,3.209,5.469.71,2.475.319,3.622.471.3.042,56.793,7.365,6.276.814,3.684.478,11.354,1.476Z" transform="translate(-108.55 -306.611)" fill="#504f60"/>
    <path id="Path_8" data-name="Path 8" d="M467.267,534.51l-.059,1.362-.347,7.69L465,585.845l-.4,9.139-1.04,23.512-.586,13.281-2.114-.662q-1.643-.523-3.282-1.068l5.07-92.189.107-1.934,2.232-.693Z" transform="translate(-336.614 -366.054)" fill="#3f3d56"/>
    <path id="Path_9" data-name="Path 9" d="M117.832,534.22l-.156,3.559-.229,5.2q-.991-2.464-1.816-5.022l-.052-.17c-.277-.866-.534-1.733-.769-2.634Z" transform="translate(-112.64 -365.864)" fill="#3f3d56"/>
    <ellipse id="Ellipse_1" data-name="Ellipse 1" cx="15.942" cy="21.488" rx="15.942" ry="21.488" transform="translate(79.879 72.979)" fill="#a1616a"/>
    <ellipse id="Ellipse_2" data-name="Ellipse 2" cx="15.942" cy="21.488" rx="15.942" ry="21.488" transform="translate(79.879 72.979)" opacity="0.1"/>
    <circle id="Ellipse_3" data-name="Ellipse 3" cx="22.181" cy="22.181" r="22.181" transform="translate(75.894 59.289)" fill="#a1616a"/>
    <path id="Path_10" data-name="Path 10" d="M346.574,183.949a28.4,28.4,0,0,0-4.024.613c-3.507.853-6.54,2.745-9.493,4.6a11.3,11.3,0,0,0-3.507,2.932c-1.476,2.2-.9,5-1.733,7.444a21.442,21.442,0,0,1-1.889,3.549,42.251,42.251,0,0,0-3.75,10.2c-.194.721-.25,1.7.537,1.975a2.166,2.166,0,0,0,1.345-.152c2.485-.821,5.642-1.057,7.486.61s1.688,4.623,3.882,5.892c2.513,1.466,6.436-.3,8.716,1.424.977.742,1.331,1.93,2.131,2.825,1.865,2.079,5.452,1.979,8.436,1.56,1.712-.243,3.812-.406,4.852.8.5.568.641,1.348,1.22,1.861,1.04.929,2.942.457,3.958-.5s1.5-2.242,2.346-3.313c1.646-2.079,4.54-3.213,6.238-5.268,1.421-1.733,1.851-3.9,2.239-6l1.445-7.76c.586-3.147,1.119-6.585-.652-9.358-.631-1-1.535-1.858-2.079-2.89-.364-.693-.568-1.424-.991-2.079a8.633,8.633,0,0,0-1.778-1.8l-3.421-2.832a28.765,28.765,0,0,0-3.74-2.773C359.466,182.681,352.153,183.429,346.574,183.949Z" transform="translate(-248.059 -136.666)" fill="#464353"/>
    <path id="Path_11" data-name="Path 11" d="M136.647,341.916c-.821.873-1.58,1.816-2.461,2.634a29.8,29.8,0,0,1-2.426,1.941q-2.038,1.525-3.986,3.157a22.322,22.322,0,0,0-3.653,3.649c-1.851,2.485-2.728,5.576-4.46,8.144-1.532,2.277-3.691,4.076-5.247,6.335a9.8,9.8,0,0,0-1.5,3.143,14.606,14.606,0,0,0-.308,3.324,24.685,24.685,0,0,0,.315,5.472,8.3,8.3,0,0,0,2.6,4.727,11.419,11.419,0,0,0,4.648,2.01,4.184,4.184,0,0,0,2.585.073,4.262,4.262,0,0,0,1.5-1.268l4.218-4.852c2.821-3.258,5.753-6.585,9.624-8.491,1.213-.593,2.492-1.04,3.708-1.615a19.972,19.972,0,0,0,10.217-13.118c.347-1.355.568-2.738.794-4.121l.61-3.792a1.21,1.21,0,0,0,0-.579,1.247,1.247,0,0,0-.444-.527,73.516,73.516,0,0,1-8.228-7.763,19,19,0,0,0-1.865-2.135c-.873-.693-.808-.641-1.858,0A22.274,22.274,0,0,0,136.647,341.916Z" transform="translate(-111.19 -237.496)" fill="#a1616a"/>
    <path id="Path_12" data-name="Path 12" d="M262.388,421.8a.652.652,0,1,0-1.171.568l-.347.17L271.2,443.723l1.868-.911-10.335-21.2Z" transform="translate(-208.079 -292.152)" fill="#3f3d56"/>
    <path id="Path_13" data-name="Path 13" d="M136.647,341.916c-.821.873-1.58,1.816-2.461,2.634a29.8,29.8,0,0,1-2.426,1.941q-2.038,1.525-3.986,3.157a22.322,22.322,0,0,0-3.653,3.649c-1.851,2.485-2.728,5.576-4.46,8.144-1.532,2.277-3.691,4.076-5.247,6.335a9.8,9.8,0,0,0-1.5,3.143,14.606,14.606,0,0,0-.308,3.324,24.685,24.685,0,0,0,.315,5.472,8.3,8.3,0,0,0,2.6,4.727,11.419,11.419,0,0,0,4.648,2.01,4.184,4.184,0,0,0,2.585.073,4.262,4.262,0,0,0,1.5-1.268l4.218-4.852c2.821-3.258,5.753-6.585,9.624-8.491,1.213-.593,2.492-1.04,3.708-1.615a19.972,19.972,0,0,0,10.217-13.118c.347-1.355.568-2.738.794-4.121l.61-3.792a1.21,1.21,0,0,0,0-.579,1.247,1.247,0,0,0-.444-.527,73.516,73.516,0,0,1-8.228-7.763,19,19,0,0,0-1.865-2.135c-.873-.693-.808-.641-1.858,0A22.274,22.274,0,0,0,136.647,341.916Z" transform="translate(-111.19 -237.496)" opacity="0.04"/>
    <path id="Path_14" data-name="Path 14" d="M478.212,402.881a16.183,16.183,0,0,1-1.04,6.505,3.465,3.465,0,0,1-1.927,2.021,4.485,4.485,0,0,1-1.695.062,61.23,61.23,0,0,0-20.271,1.608c1.768-3.535.752-7.774,1.241-11.7.135-1.071.381-2.124.475-3.2.347-3.812-1.286-7.514-2.034-11.278a25.231,25.231,0,0,1,0-9.87,6.584,6.584,0,0,1,.849-2.374,5.572,5.572,0,0,1,1.948-1.695c2.807-1.6,6.117-1.781,9.271-1.57,2.125.142,6.384-.059,8.155,1.248,1.937,1.431,2.551,6.238,3.074,8.46a71.554,71.554,0,0,1,1.594,10.352A111.237,111.237,0,0,1,478.212,402.881Z" transform="translate(-333.278 -259.423)" fill="#a1616a"/>
    <path id="Path_15" data-name="Path 15" d="M59.98,436.03l12.477,8.318,56.145-2.079L91.518,436.03Z" transform="translate(-39.192 -284.899)" fill="#fff"/>
    <path id="Path_16" data-name="Path 16" d="M188.8,287.348c-2.048,1.806-3.785,3.934-5.725,5.857a78.78,78.78,0,0,1-8.7,7.122,6.474,6.474,0,0,1,4.505,4.54c.132.509.2,1.04.347,1.539a8.407,8.407,0,0,0,1.927,3.119c3.514,3.961,8.432,6.893,10.5,11.784a1.088,1.088,0,0,0,.416.589.911.911,0,0,0,.537.062c1.875-.2,3.31-1.709,4.505-3.178a33.222,33.222,0,0,0,5.892-10.369,18.483,18.483,0,0,0,.087-11.784,30.164,30.164,0,0,0-2.728-5.313q-1.348-2.242-2.689-4.478c-.468-.787-1.064-2.384-1.982-2.773C193.719,283.213,190.076,286.076,188.8,287.348Z" transform="translate(-151.564 -202.305)" fill="#00adb5"/>
    <path id="Path_17" data-name="Path 17" d="M466.8,345.234l2.949,6.932a21.429,21.429,0,0,0-19.374,2.686,10.883,10.883,0,0,0-3.982,4.634,2.024,2.024,0,0,1-2.007-.787,4.024,4.024,0,0,1-.742-2.121c-.274-2.662.735-5.271,1.733-7.76a11.177,11.177,0,0,1,1.768-3.3,10.326,10.326,0,0,1,3.015-2.159,67.145,67.145,0,0,1,10.934-4.831c1.594-.516,3.265-.506,4.159.984C466.289,341.29,465.988,343.342,466.8,345.234Z" transform="translate(-327.478 -237.792)" fill="#00adb5"/>
    <path id="Path_18" data-name="Path 18" d="M137.25,414c.738.589,1.386,1.286,2.145,1.847a15.328,15.328,0,0,0,2.551,1.431l3.417,1.643a19.146,19.146,0,0,0,3.31,1.345c1.463.392,3,.43,4.467.794,1.854.457,3.549,1.411,5.375,1.962s3.965.641,5.49-.506c.953-.717,1.674-1.9,2.856-2.079a3.779,3.779,0,0,1,2.176.624l8.893,4.675a6.776,6.776,0,0,1,3.095,2.533c.627,1.2.2,3.029-1.116,3.341a12.192,12.192,0,0,1-1.386.08,1.087,1.087,0,0,0-1.019.787,1.581,1.581,0,0,0,.218.814,3.407,3.407,0,0,1,.052,2.9,2.072,2.072,0,0,1-2.516,1.04c.156,1.341-1.3,2.28-2.6,2.637-3.279.9-6.755.347-10.106-.222a13.854,13.854,0,0,1-3.854-1.04c-.575-.281-1.109-.641-1.691-.9a12.07,12.07,0,0,0-5.16-.586c-8.079.142-16.088-1.355-24.031-2.845a11.624,11.624,0,0,1-4.246-1.386c-2.426-1.58-3.327-4.824-2.929-7.694s1.854-5.469,3.286-7.992l1.854-3.268a4.207,4.207,0,0,1,1-1.317C129.5,410.532,134.914,412.123,137.25,414Z" transform="translate(-116.389 -285.762)" fill="#a1616a"/>
    <path id="Path_19" data-name="Path 19" d="M137.25,414c.738.589,1.386,1.286,2.145,1.847a15.328,15.328,0,0,0,2.551,1.431l3.417,1.643a19.146,19.146,0,0,0,3.31,1.345c1.463.392,3,.43,4.467.794,1.854.457,3.549,1.411,5.375,1.962s3.965.641,5.49-.506c.953-.717,1.674-1.9,2.856-2.079a3.779,3.779,0,0,1,2.176.624l8.893,4.675a6.776,6.776,0,0,1,3.095,2.533c.627,1.2.2,3.029-1.116,3.341a12.192,12.192,0,0,1-1.386.08,1.087,1.087,0,0,0-1.019.787,1.581,1.581,0,0,0,.218.814,3.407,3.407,0,0,1,.052,2.9,2.072,2.072,0,0,1-2.516,1.04c.156,1.341-1.3,2.28-2.6,2.637-3.279.9-6.755.347-10.106-.222a13.854,13.854,0,0,1-3.854-1.04c-.575-.281-1.109-.641-1.691-.9a12.07,12.07,0,0,0-5.16-.586c-8.079.142-16.088-1.355-24.031-2.845a11.624,11.624,0,0,1-4.246-1.386c-2.426-1.58-3.327-4.824-2.929-7.694s1.854-5.469,3.286-7.992l1.854-3.268a4.207,4.207,0,0,1,1-1.317C129.5,410.532,134.914,412.123,137.25,414Z" transform="translate(-116.389 -285.762)" opacity="0.04"/>
    <path id="Path_20" data-name="Path 20" d="M341.9,433.5c-1.806.853-3.878.936-5.763,1.591a34.138,34.138,0,0,0-5.216,2.793c-4.505,2.516-9.7,3.466-14.809,4.37a43.2,43.2,0,0,1-9.358.977c-4.221-.18-8.276-1.587-12.366-2.648s-8.453-1.774-12.5-.582a14.075,14.075,0,0,0-9.184,8.813,20.3,20.3,0,0,0-.8,7.8c.853.627,2.045-.243,2.509-1.2s.717-2.121,1.619-2.676c1.563.53,1.944,2.613,3.234,3.643a5.839,5.839,0,0,0,2.9.96l5.268.749c1.268.18,2.741.3,3.66-.593.447-.433.693-1.04,1.1-1.5a4.088,4.088,0,0,1,3.487-.963c3.9.388,7.548,2.915,11.416,2.315a21.647,21.647,0,0,0,3.837-1.22c7.517-2.655,15.87-1.04,23.692-2.561a52.878,52.878,0,0,0,8.7-2.686,17.584,17.584,0,0,0,4.419-2.19,9.3,9.3,0,0,0,3.591-8.252,9.434,9.434,0,0,0-3.331-6.114,11.789,11.789,0,0,0-2.142-1.84C344.451,431.878,343.082,432.942,341.9,433.5Z" transform="translate(-215.24 -299.271)" fill="#a1616a"/>
    <g id="Group_1" data-name="Group 1" transform="translate(74.69 52.649)" opacity="0.1">
      <path id="Path_21" data-name="Path 21" d="M365.9,237.665c-.579-.513-.721-1.293-1.22-1.861-1.04-1.2-3.14-1.04-4.852-.8-2.984.419-6.585.516-8.436-1.56-.8-.894-1.154-2.079-2.131-2.825-2.28-1.733-6.2.042-8.716-1.424-2.194-1.279-2.052-4.246-3.882-5.892s-5-1.431-7.486-.61a2.166,2.166,0,0,1-1.345.152c-.787-.277-.731-1.255-.537-1.975a42.255,42.255,0,0,1,3.75-10.2,21.446,21.446,0,0,0,1.889-3.549c.752-2.2.367-4.682,1.355-6.762a9.332,9.332,0,0,0-2.734,2.426c-1.476,2.2-.9,5-1.733,7.444a21.443,21.443,0,0,1-1.889,3.549,42.251,42.251,0,0,0-3.75,10.2c-.194.721-.25,1.7.537,1.975a2.166,2.166,0,0,0,1.345-.153c2.485-.821,5.642-1.057,7.486.61s1.688,4.623,3.882,5.892c2.513,1.466,6.436-.3,8.716,1.424.977.742,1.331,1.93,2.131,2.825,1.865,2.079,5.452,1.979,8.436,1.56,1.712-.243,3.812-.405,4.852.8.5.568.641,1.348,1.22,1.861,1.04.929,2.942.457,3.958-.5a10.51,10.51,0,0,0,1.657-2.267A2.578,2.578,0,0,1,365.9,237.665Z" transform="translate(-324.055 -200.36)"/>
      <path id="Path_22" data-name="Path 22" d="M461.83,291.067a9.861,9.861,0,0,0-.62.9,18.79,18.79,0,0,0,3.736-3.046,7.353,7.353,0,0,0,.693-1A18.2,18.2,0,0,0,461.83,291.067Z" transform="translate(-413.676 -257.574)"/>
    </g>
    <path id="Path_23" data-name="Path 23" d="M556.48,446.53,557.52,546l4.852-.693-1.04-98.774Z" transform="translate(-363.617 -291.76)" fill="#3f3d56"/>
    <path id="Path_24" data-name="Path 24" d="M640.48,498.53,641.52,598l4.852-.693-1.04-98.774Z" transform="translate(-418.505 -325.738)" fill="#3f3d56"/>
    <path id="Path_25" data-name="Path 25" d="M1000.393,597.253h0l-.021-1.91v-1.137l-.184-17.5L999.9,549.36l-.048-2.36H995l.024,2.273.152,14.65.066,6.342h0l.055,5.136.09,8.879.055,5.237h0v.555l.073,6.883.062,6.068.4-.437q.953-1.064,1.865-2.163Z" transform="translate(-687.778 -374.215)" fill="#3f3d56"/>
    <path id="Path_26" data-name="Path 26" d="M619.753,545.03l-2.773,4.145,2.773,18.885,23.567,6.45h38.123l22.874,1.383,10.9-7.458-1.885-12.809L705.01,545.03Z" transform="translate(-403.15 -356.122)" fill="#00adb5"/>
    <path id="Path_27" data-name="Path 27" d="M722.373,605.48l-1.386,11.513s-7.278,22.572,51.293,21.19,48.52-5.989,48.52-5.989l-.346-13.357s2.041,6.322-27.726,5.466-57.531-3.622-57.531-3.622S724.8,622.521,722.373,605.48Z" transform="translate(-508.542 -412.427)" fill="#495464"/>
    <path id="Path_28" data-name="Path 28" d="M839.886,304.819a16.746,16.746,0,0,0-7.566,7.732,49.914,49.914,0,0,0-3.587,10.4,92.582,92.582,0,0,0-2.5,11.354c-.915,6.834-.229,14.019,2.911,20.157s8.942,11.09,15.734,12.272a28.956,28.956,0,0,0,7.971.094,64.807,64.807,0,0,0,14.074-3.1c4.765-1.612,9.725-4.093,11.846-8.664,1.23-2.651,1.334-5.673,1.275-8.592a91.4,91.4,0,0,0-3.573-23.494,20,20,0,0,0-2.745-6.322,19.378,19.378,0,0,0-5.112-4.505C860.511,306.687,849.857,300.286,839.886,304.819Z" transform="translate(-577.258 -214.962)" fill="#fbbebe"/>
    <path id="Path_29" data-name="Path 29" d="M839.886,304.819a16.746,16.746,0,0,0-7.566,7.732,49.914,49.914,0,0,0-3.587,10.4,92.582,92.582,0,0,0-2.5,11.354c-.915,6.834-.229,14.019,2.911,20.157s8.942,11.09,15.734,12.272a28.956,28.956,0,0,0,7.971.094,64.807,64.807,0,0,0,14.074-3.1c4.765-1.612,9.725-4.093,11.846-8.664,1.23-2.651,1.334-5.673,1.275-8.592a91.4,91.4,0,0,0-3.573-23.494,20,20,0,0,0-2.745-6.322,19.378,19.378,0,0,0-5.112-4.505C860.511,306.687,849.857,300.286,839.886,304.819Z" transform="translate(-577.258 -214.962)" opacity="0.05"/>
    <path id="Path_30" data-name="Path 30" d="M797.972,377.315a15.73,15.73,0,0,0,3.466,3.466c3.3,2.28,7.535,2.589,11.541,2.714,3.216.1,6.9-.087,8.921-2.6a10.391,10.391,0,0,0,1.684-3.975,176.326,176.326,0,0,0,4.817-26.26l9.177.031c3.972,17.006,3.646,34.685,3.3,52.149l-.5,25.466-5.913-.627c-14.04-1.487-28.1-2.974-42.216-3.23a241.491,241.491,0,0,0-24.787.818l12.875-38.283c1.67-4.977,3.358-10.019,3.75-15.249.565-7.587-1.563-15.6,1.386-22.614a2.751,2.751,0,0,1,1.071-1.445,3.041,3.041,0,0,1,1.833-.142c1.165.156,4.724,0,5.569.745,1.248,1.081.423,1.244-.017,2.987a36.461,36.461,0,0,0-1.521,9.257A27.34,27.34,0,0,0,797.972,377.315Z" transform="translate(-539.098 -243.835)" fill="#00adb5"/>
    <path id="Path_31" data-name="Path 31" d="M967.6,440.273h0q2.319-3.078,4.37-6.374c-.693-1.483-1.456-2.932-2.062-4.447a44.681,44.681,0,0,1-1.989-7.226q-.27-1.248-.537-2.5c-1.941-9.049-3.764-18.226-4.142-27.4q-.052-1.144-.066-2.287V387.2c.042-2.079.173-4.176.412-6.263.045-.409.1-.818.153-1.227a1.768,1.768,0,0,1,.035-.267l23.567-.859h0l1.982-.073a7.263,7.263,0,0,0,3.927-.9c1.889-1.3,2.111-3.954,2.079-6.238a92.6,92.6,0,0,0-1.955-17.173c-.894-4.249-2.17-8.592-5.032-11.856-2.35-2.682-5.753-4.634-6.977-7.971a35.97,35.97,0,0,0-1.158-3.788,11.8,11.8,0,0,0-2.481-2.97,41.357,41.357,0,0,1-7.937-10.993c-1.4-2.828-2.925-5.947-4.758-7.9-.09-.1-.18-.194-.274-.284-1.56-1.542-3.344-2.218-5.459-1.168a7,7,0,0,0-1.081.672h0a13.174,13.174,0,0,0-2.055,1.955,46.786,46.786,0,0,0-5.59,7.971,44.3,44.3,0,0,0-2.856,6.238,43.021,43.021,0,0,0-1.542,5.2c-.3,1.307-.534,2.627-.721,3.951a96.139,96.139,0,0,0-.6,15.09c.1,4.63.309,9.271.728,13.884q.156,1.674.347,3.344.381,3.3.943,6.585c.149.835.3,1.67.471,2.5.042.222.087.444.132.662l.021.094a56.31,56.31,0,0,1,1.064,5.861q.042.371.062.738a28.527,28.527,0,0,1-.028,3.4c-.08,1.338-.2,2.672-.267,4.01a6.528,6.528,0,0,1-.024.693c-.017.676,0,1.352,0,2.027a32.136,32.136,0,0,0,.575,4.814,31.142,31.142,0,0,0,3,8.47c.132.25.267.5.4.738,1.757,3.14,3.975,6.02,5.6,9.233A39.857,39.857,0,0,1,961,424.48q.347,1.556.659,3.119c.322,1.664.61,3.341.9,5.018.028.166.059.347.09.5.392,2.225.8,4.44,1.334,6.613.308,1.265.655,2.513,1.06,3.74Z" transform="translate(-654.982 -217.235)" fill="#495464"/>
    <path id="Path_32" data-name="Path 32" d="M876.054,581.3c0,.312-.021.624-.035.939a44.431,44.431,0,0,1-.419,4.544,29.563,29.563,0,0,1-1.5,6.027,20.316,20.316,0,0,1-1.788,3.677,16.953,16.953,0,0,1-2.225,2.866c-2.079,2.163-5.074,2.852-7.971,3.764a19.625,19.625,0,0,0-3.844,1.57c-.218.121-.433.253-.641.392l-3.625,2.4a10.848,10.848,0,0,0-3.06,2.624,5.653,5.653,0,0,0-.347.586,13.285,13.285,0,0,0-1.068,3.2c-1.885,7.853-3.774,15.714-5.067,23.685-.087.527-.17,1.057-.26,1.587l-.031.166a.87.87,0,0,0-.055-.114,208.578,208.578,0,0,1-28.8,14.719l-2.152-18.022a21.808,21.808,0,0,1-.222-4.429c.2-2.332,1.154-4.544,1.411-6.869a11.7,11.7,0,0,0-1.237-6.609,7.23,7.23,0,0,1-1.016-2.45,1.524,1.524,0,0,1,1.3-1.781,3.2,3.2,0,0,0,.544-2.859,8.3,8.3,0,0,0-.485-1.584c-.589-1.449-1.334-3.026-.828-4.505a1.685,1.685,0,0,0,.173-.866.141.141,0,0,0,0-.055c-.118-.388-.579-.558-.818-.887-.451-.613,0-1.449.277-2.156a8.221,8.221,0,0,0,.464-2.36c.038-.447.066-.9.114-1.341a13.538,13.538,0,0,1,.322-1.781,14.061,14.061,0,0,1,5.694-8.151c1.348-.908,2.849-1.57,4.225-2.426a38.7,38.7,0,0,0,4.027-3.119q4.578-3.812,9.52-7.188a120.26,120.26,0,0,1,10.993-6.675q1.213-.655,2.426-1.275,1.32-.693,2.658-1.314c2.856-1.362,6.1-.853,9.254.055,1.324.378,2.63.828,3.892,1.237a18.025,18.025,0,0,1,3.535,1.587,13.035,13.035,0,0,1,6.068,7.133.379.379,0,0,1,0,.059A18.154,18.154,0,0,1,876.054,581.3Z" transform="translate(-568.069 -385.582)" fill="#f86d70"/>
    <path id="Path_33" data-name="Path 33" d="M876.054,581.3c0,.312-.021.624-.035.939a44.431,44.431,0,0,1-.419,4.544,29.563,29.563,0,0,1-1.5,6.027,20.316,20.316,0,0,1-1.788,3.677,16.953,16.953,0,0,1-2.225,2.866c-2.079,2.163-5.074,2.852-7.971,3.764a19.625,19.625,0,0,0-3.844,1.57c-.218.121-.433.253-.641.392l-3.625,2.4a10.848,10.848,0,0,0-3.06,2.624,5.653,5.653,0,0,0-.347.586,13.285,13.285,0,0,0-1.068,3.2c-1.885,7.853-3.774,15.714-5.067,23.685-.087.527-.17,1.057-.26,1.587l-.031.166a.87.87,0,0,0-.055-.114,208.578,208.578,0,0,1-28.8,14.719l-2.152-18.022a21.808,21.808,0,0,1-.222-4.429c.2-2.332,1.154-4.544,1.411-6.869a11.7,11.7,0,0,0-1.237-6.609,7.23,7.23,0,0,1-1.016-2.45,1.524,1.524,0,0,1,1.3-1.781,3.2,3.2,0,0,0,.544-2.859,8.3,8.3,0,0,0-.485-1.584c-.589-1.449-1.334-3.026-.828-4.505a1.685,1.685,0,0,0,.173-.866.141.141,0,0,0,0-.055c-.118-.388-.579-.558-.818-.887-.451-.613,0-1.449.277-2.156a8.221,8.221,0,0,0,.464-2.36c.038-.447.066-.9.114-1.341a13.538,13.538,0,0,1,.322-1.781,14.061,14.061,0,0,1,5.694-8.151c1.348-.908,2.849-1.57,4.225-2.426a38.7,38.7,0,0,0,4.027-3.119q4.578-3.812,9.52-7.188a120.26,120.26,0,0,1,10.993-6.675q1.213-.655,2.426-1.275,1.32-.693,2.658-1.314c2.856-1.362,6.1-.853,9.254.055,1.324.378,2.63.828,3.892,1.237a18.025,18.025,0,0,1,3.535,1.587,13.035,13.035,0,0,1,6.068,7.133.379.379,0,0,1,0,.059A18.154,18.154,0,0,1,876.054,581.3Z" transform="translate(-568.069 -385.582)" opacity="0.1"/>
    <path id="Path_34" data-name="Path 34" d="M899.388,446.8a.652.652,0,1,0-1.171.568l-.347.17L908.2,468.723l1.868-.911-10.335-21.2Z" transform="translate(-624.311 -308.487)" fill="#3f3d56"/>
    <circle id="Ellipse_4" data-name="Ellipse 4" cx="22.181" cy="22.181" r="22.181" transform="translate(265.817 71.766)" fill="#fbbebe"/>
    <path id="Path_35" data-name="Path 35" d="M927.959,203.5a29.467,29.467,0,0,0-.783-5.23c-1.3-5.6-3.684-11.122-7.784-15.145a30.321,30.321,0,0,0-.9-2.908.546.546,0,0,0-.024-.069,32.542,32.542,0,0,0-5.233-9.278c-1.3-1.615-2.984-3.209-5.057-3.272a4.1,4.1,0,0,1-1.733-.187,3.12,3.12,0,0,1-.967-.991,9.077,9.077,0,0,0-8.789-3.289l-.215.045c-.121.024-.243.052-.347.083s-.291.083-.437.128q.239.4.468.8.617,1.1,1.144,2.246.437.957.807,1.944c-3.549.405-6.439,2.925-9.08,5.323l-6.218,5.642a.265.265,0,0,0-.031.031l-.18.173c-.045.045-.09.09-.132.139a.3.3,0,0,0-.045.049c-.052.055-.1.114-.149.173a2.617,2.617,0,0,0-.232.347,1.274,1.274,0,0,0-.09.163.348.348,0,0,0-.024.052,1.285,1.285,0,0,0-.059.146.05.05,0,0,0,0,.021.82.82,0,0,0-.024.087,1.039,1.039,0,0,0,.059.735l4.1.045h.482c.021.548.038,1.1.059,1.646a23.371,23.371,0,0,0-1.872,1.56,20.327,20.327,0,0,0-1.826,1.927,26.6,26.6,0,0,0-5.822,16.046V204.8c0,.347.031.693.059,1.04a2.6,2.6,0,0,0,.347,1.286,1.18,1.18,0,0,0,.1.125,2.391,2.391,0,0,0,.735.541l.3.146h0c.149.073.291.142.43.222,1.307.738,2.079,2.163,3.268,3.078.069.052.139.1.208.149l.156.1.1.062.132.076a2.823,2.823,0,0,0,.267.142h0l.166.083h.028c.139.062.277.121.419.173l.2.069.059.021c.055.017.114.038.173.052q.177.052.347.094l.347.076c.135.024.274.049.412.066l.2.028.208.021q.5.045,1,.052h0a24.956,24.956,0,0,0,3.143-.218l8.845-1.04a19.057,19.057,0,0,1,6.034-.055,39.759,39.759,0,0,1,4.852,1.709c.367.128.735.246,1.106.347.135.038.274.08.412.114l.191.049.444.107c.159.038.319.076.478.107.225.049.447.09.672.132.152.031.308.055.464.083h.031l.444.069h.107l.329.045c.159.024.319.045.482.062q.53.066,1.061.114c.572.055,1.147.1,1.733.132l.575.035.575.028,1.733.076h.319a8.942,8.942,0,0,0,2.156-.111c.125-.024.246-.052.367-.087s.222-.069.347-.111a5.933,5.933,0,0,0,2.908-2.873c.139-.26.267-.52.385-.787s.225-.537.322-.808c.121-.347.225-.676.315-1.022.028-.094.052-.187.073-.284s.069-.288.1-.433c.087-.4.153-.8.2-1.206a3.7,3.7,0,0,1,.045-.388c.031-.347.055-.669.069-1.009V204.5C927.984,204.224,927.959,203.853,927.959,203.5Zm-8.886-20.69c-.281-.263-.568-.516-.859-.756a3.579,3.579,0,0,1,.856.756Z" transform="translate(-610.687 -123.281)" fill="#464353"/>
    <path id="Path_36" data-name="Path 36" d="M741.98,307.734c-2.61-.322-5.2-1.466-7.774-.9a10.774,10.774,0,0,0-4.287,2.378,52.129,52.129,0,0,0-12.05,13.776,7.278,7.278,0,0,0-1.112,2.606,6.909,6.909,0,0,0,.478,3.216c2.371,7,7.441,12.854,9.749,19.879,2.426,7.389,1.584,15.464-.2,23.033A96.261,96.261,0,0,1,716.091,398.3a15.159,15.159,0,0,1-2.461,3.369c-1.262,1.213-2.956,2.079-3.7,3.667a16.409,16.409,0,0,0-.693,2.225c-.693,2.079-2.371,3.861-2.533,6.055-.121,1.674.672,3.258,1.154,4.852a13.37,13.37,0,0,1-.246,8.352c-1.757,4.817-6.353,9.2-5.018,14.151,2.977-.856,6.276-1.969,7.68-4.731.5-.977.742-2.142,1.577-2.856,1.667-1.418,4.505-.135,6.276-1.438,1.338-.991,1.386-3.022.79-4.582s-1.622-2.932-2.079-4.537c-.8-2.894.478-5.954.243-8.945-.111-1.386-.537-2.714-.568-4.093a9.612,9.612,0,0,1,3.4-7.018,28.229,28.229,0,0,1,6.807-4.214l9.066-4.505c3.289-1.629,6.893-3.615,7.971-7.122a14.424,14.424,0,0,0,.433-4.086c.308-20.971,5.563-41.52,10.785-61.832a76.6,76.6,0,0,1,2.842-9.33c1.206-3.022,3.566-5.448,4.769-8.255C755.6,302.608,749.227,308.642,741.98,307.734Z" transform="translate(-496.552 -215.007)" fill="#495464"/>
    <path id="Path_37" data-name="Path 37" d="M822.357,596.514c.8,4.852,1.289,9.808,1.67,14.74A168.624,168.624,0,0,1,804.248,625.1c-.388.239-.78.475-1.171.693l-.031.166a.855.855,0,0,0-.055-.114,5.216,5.216,0,0,0-2.606-2.572q-3.837-8.058-7.666-16.116a42.33,42.33,0,0,1-3.466-8.959,1.388,1.388,0,0,0-.042-.2c-.527-2.426-.648-4.946-1-7.4a21.385,21.385,0,0,0-.946-4.138c-.416-1.2-.988-2.357-1.494-3.525a11.739,11.739,0,0,1-1.171-4.457,2.913,2.913,0,0,0-.211-1.456,3.771,3.771,0,0,0-.946-.915,3.608,3.608,0,0,1-1.164-3.3c-2.079.107-3.251,2.343-4.086,4.239a23.108,23.108,0,0,1-2.967,5.2,9.861,9.861,0,0,1-3.286,2.734c-.114.055-.229.111-.346.159-2.894,1.275-6.273.825-9.41.25-2.741-.5-5.576-1.126-7.781-2.831l-.236-.187a10.174,10.174,0,0,1-1.733-1.851c-1.847-2.523-2.665-5.847-3.119-9.011-.042-.3-.083-.6-.121-.894a33.331,33.331,0,0,1-.26-6.751c.042-.555.1-1.109.173-1.66.049-.347.1-.721.159-1.081a.1.1,0,0,1,0-.031c.09-.572.187-1.147.284-1.733a15.929,15.929,0,0,1,1.733-5.673,10.746,10.746,0,0,1,2.551-2.731c.374-.295.759-.575,1.147-.846.631-.437,1.279-.853,1.937-1.244a33.484,33.484,0,0,1,5.2-2.53c.43-.166.866-.322,1.3-.471a10.228,10.228,0,0,1,5.3-.419,27.866,27.866,0,0,0,4.741.277,119.483,119.483,0,0,0,12.206-1.359c5.635-.693,11.69-.776,16.6,2.079.236.135.464.277.693.426a20.537,20.537,0,0,1,5.958,6.3c.347.523.648,1.061.946,1.6a40.87,40.87,0,0,1,1.861,3.847,4.782,4.782,0,0,1,.516,2.079,2.7,2.7,0,0,1-.055.409c-.094.492-.281.971-.346,1.47-.218,1.889,1.386,3.466,1.986,5.265a25.805,25.805,0,0,1,.565,3.66,19.037,19.037,0,0,0,1.927,4.852A60.689,60.689,0,0,1,819.4,584.1c.6,1.847,1.119,3.722,1.573,5.615q.222.911.419,1.826C821.775,593.218,822.083,594.861,822.357,596.514Z" transform="translate(-526.95 -372.225)" fill="#f86d70"/>
    <path id="Path_38" data-name="Path 38" d="M694.343,463.092v2.426l-.447-.007-.5-.007-5.573-.069-13.731-.18-3.854-.049-1-.014-5.784-.073-8.151-.107-17.294-.225L608,464.4l-10.83-.139-4.346-.055-4-.052-2.492-.035-2.36-.031-17.5-.225-4.852-.062-1.057-.014-.686-1.771-4.987-12.861-.911-2.35.693-2.773,3.119,2.079,1.92.239,31.611,3.93,5.933.738,12.581,1.566,12.324,1.532,4.831.6,28.589,3.556,7.989.995,6.613.821,23.512,2.925Z" transform="translate(-361.984 -290.126)" fill="#3f3d56"/>
    <path id="Path_39" data-name="Path 39" d="M555.98,444.03l6.238,16.289,133.431,2.773V445.416Z" transform="translate(-363.291 -290.126)" fill="#504f60"/>
    <path id="Path_40" data-name="Path 40" d="M575.98,496.03l1.04,99.467,4.852-.693-1.04-98.774Z" transform="translate(-376.359 -324.104)" fill="#3f3d56"/>
    <path id="Path_41" data-name="Path 41" d="M1054.668,551.569h-.5a109.676,109.676,0,0,1-4,18.3L1048.6,551.5l-.066-.783,5.829-.672.194-.021Z" transform="translate(-722.756 -376.188)" fill="#3f3d56"/>
    <path id="Path_42" data-name="Path 42" d="M777.522,459.615l-50.773,1.04-15.769-5.2,42.282-2.426Z" transform="translate(-464.572 -296.007)" fill="#fff"/>
    <path id="Path_43" data-name="Path 43" d="M822.409,458.215a3.4,3.4,0,0,0-1.386.988,3.66,3.66,0,0,0-.516,1.573l-.853,5.084a2.248,2.248,0,0,0,.066,1.411c.222.426.866.648,1.189.295a4.565,4.565,0,0,0,.624,2.866,2,2,0,0,0,2.61.672,1.691,1.691,0,0,0,2.547.4c-.492.166-.527.918-.177,1.3a2.263,2.263,0,0,0,1.414.565,34.585,34.585,0,0,0,17.987-2.263c.537-.222-.877-6.845-1.019-7.524-.347-1.6-.52-3.549-1.868-4.623-3.223-2.572-8.948-3.078-12.875-2.773A22.181,22.181,0,0,0,822.409,458.215Z" transform="translate(-573.148 -314.82)" fill="#fbbebe"/>
    <path id="Path_44" data-name="Path 44" d="M906.074,455.025c-12.536.239-25.331.444-37.295-3.31a25.3,25.3,0,0,1-.229,13.471l58.613,4.852c2.485.2,12.789,1.369,15.211.783s-20.327-8.079-19.408-10.4c2.527-6.387,10.99-10.13,4.894-10.37C920.165,449.75,913.826,454.88,906.074,455.025Z" transform="translate(-605.152 -310.86)" opacity="0.1"/>
    <path id="Path_45" data-name="Path 45" d="M907.074,457.025c-12.536.239-25.331.444-37.295-3.31a25.3,25.3,0,0,1-.229,13.471l58.613,4.852c2.485.2,12.789,1.386,15.211.783s1.854-3.573,2.773-5.892c2.527-6.387-11.191-14.636-17.287-14.875C921.165,451.75,914.826,456.88,907.074,457.025Z" transform="translate(-605.806 -312.167)" fill="#495464"/>
    <path id="Path_46" data-name="Path 46" d="M875.772,465.215a3.393,3.393,0,0,1,1.386.988,3.711,3.711,0,0,1,.52,1.573l.853,5.084a2.273,2.273,0,0,1-.066,1.411c-.222.426-.87.648-1.189.295a4.588,4.588,0,0,1-.624,2.866,2,2,0,0,1-2.613.672,1.691,1.691,0,0,1-2.547.4c.492.166.53.918.18,1.3a2.273,2.273,0,0,1-1.417.565,34.57,34.57,0,0,1-17.984-2.263c-.537-.222.873-6.845,1.019-7.524.347-1.6.52-3.549,1.868-4.623,3.22-2.572,8.949-3.078,12.875-2.773A22.18,22.18,0,0,1,875.772,465.215Z" transform="translate(-594.436 -319.394)" fill="#fbbebe"/>
    <path id="Path_47" data-name="Path 47" d="M673.411,385.23a22.187,22.187,0,0,0-3.046,4.727c-1.418,3.3-1.21,7.035-.974,10.619a6.194,6.194,0,0,0,.693,2.963,5,5,0,0,0,1.809,1.542c3,1.705,6.516,2.215,9.947,2.6q7.881.873,15.818,1.064c13.107.319,26.416-.752,39.184,2.218a9.815,9.815,0,0,1-.693-8.318,28.321,28.321,0,0,1,4.253-7.469c-5.843-1.851-12.109,1.04-18.23.752-6.283-.295-12.1-3.927-18.389-3.923a16.73,16.73,0,0,1-4.041-.156,3.365,3.365,0,0,1-2.707-2.665c1.677.378,3.268-1.057,3.961-2.63s.818-3.351,1.49-4.935c1.674-3.941,6.2-5.767,9.011-9.011a2.208,2.208,0,0,0,.156-3.348c-2.339-3.119-5.864-4.852-8.793-7.278-1.019-.846-3.074-4.034-4.218-4.329-2.121-.544-3.92,2.52-5.3,4.013Q682.9,373.013,673.411,385.23Z" transform="translate(-474.906 -250.447)" fill="#495464"/>
    <path id="Path_48" data-name="Path 48" d="M882.39,434.81a11.474,11.474,0,0,1,2.319,2.3,3.959,3.959,0,0,1,.724,3.1,4.63,4.63,0,0,1,2.887-4.793Z" transform="translate(-614.196 -300.907)" opacity="0.07"/>
    <g id="Group_2" data-name="Group 2" transform="translate(266.283 39.846)" opacity="0.1">
      <path id="Path_49" data-name="Path 49" d="M933.289,166.591a30.11,30.11,0,0,0-1.407-3.171,8.5,8.5,0,0,0-1.012.26,29.309,29.309,0,0,1,1.6,3.06A5.812,5.812,0,0,1,933.289,166.591Z" transform="translate(-912.157 -163.42)"/>
      <path id="Path_50" data-name="Path 50" d="M995.87,212c.094.076.184.163.274.243a.506.506,0,0,0-.024-.066Q996,212.09,995.87,212Z" transform="translate(-954.63 -195.163)"/>
      <path id="Path_51" data-name="Path 51" d="M894.989,212.414c.18-.142.347-.291.541-.43l-.055-1.646-3.7-.038c-.6.551-1.237,1.341-.884,2.079Z" transform="translate(-885.966 -194.053)"/>
      <path id="Path_52" data-name="Path 52" d="M926.365,284.063a5.919,5.919,0,0,1-2.908,2.873,7.884,7.884,0,0,1-3.175.3c-3.653-.149-7.368-.312-10.82-1.521A38.2,38.2,0,0,0,904.611,284a18.956,18.956,0,0,0-6.034.059l-8.845,1.04c-2.61.3-5.517.534-7.6-1.067-1.192-.915-1.962-2.339-3.268-3.074a4.155,4.155,0,0,1-1.563-1.04,2.6,2.6,0,0,1-.347-1.286c-.028-.364-.045-.728-.059-1.092a29.317,29.317,0,0,0,.059,3.171A2.6,2.6,0,0,0,877.3,282a4.154,4.154,0,0,0,1.563,1.04c1.307.735,2.079,2.159,3.268,3.074,2.079,1.6,4.991,1.386,7.6,1.067l8.845-1.04a18.957,18.957,0,0,1,6.034-.059,39.2,39.2,0,0,1,4.852,1.712,36.715,36.715,0,0,0,10.82,1.521,7.946,7.946,0,0,0,3.175-.3,5.919,5.919,0,0,0,2.908-2.873,14.71,14.71,0,0,0,1.5-7.781,13.536,13.536,0,0,1-1.5,5.7Z" transform="translate(-876.877 -237.989)"/>
    </g>
    <path id="Path_53" data-name="Path 53" d="M937.56,179l4.852,4.505S938.253,181.773,937.56,179Z" transform="translate(-650.246 -133.754)" opacity="0.1"/>
  </g>
</svg>
