<svg xmlns="http://www.w3.org/2000/svg" width="52.352" height="52.352" viewBox="0 0 52.352 52.352">
  <g id="student-svgrepo-com" transform="translate(0 -0.001)">
    <g id="Group_4" data-name="Group 4" transform="translate(0 0.001)">
      <g id="Group_3" data-name="Group 3" transform="translate(0 0)">
        <path id="Path_235" data-name="Path 235" d="M153.984,194.7a3.483,3.483,0,0,0,3.442-3.019l3.189-2.391a.873.873,0,1,0-1.047-1.4l-2.224,1.668a2.612,2.612,0,0,0-2.488-1.843h-3.49a2.621,2.621,0,0,0-2.618,2.618,2.621,2.621,0,0,0-2.618-2.618h-3.49a2.612,2.612,0,0,0-2.488,1.843L137.93,187.9a.873.873,0,1,0-1.047,1.4l3.189,2.391a3.483,3.483,0,0,0,3.442,3.019h1.745a3.494,3.494,0,0,0,3.49-3.49,3.494,3.494,0,0,0,3.49,3.49Zm-6.98-3.49a1.747,1.747,0,0,1-1.745,1.745h-1.745a1.747,1.747,0,0,1-1.745-1.745v-.872a.873.873,0,0,1,.873-.872h3.49a.873.873,0,0,1,.872.872v.872Zm3.49,0v-.872a.873.873,0,0,1,.872-.872h3.49a.873.873,0,0,1,.872.872v.872a1.747,1.747,0,0,1-1.745,1.745h-1.745A1.747,1.747,0,0,1,150.494,191.215Z" transform="translate(-122.573 -168.529)" fill="#00adb5"/>
        <path id="Path_236" data-name="Path 236" d="M52.327,403.662l-.892-3.554c-.448-1.345-3.1-5.673-18.278-5.791V393.4a.872.872,0,0,0-1.745,0v1.745c0,.006,0,.011,0,.017s0,.01,0,.016c0,.532-.179,5.2-5.235,5.2s-5.232-4.7-5.235-5.235V393.4a.873.873,0,0,0-1.745,0v.881c-11.307.089-16.968,1.893-18.3,5.887l-.872,3.49a.872.872,0,0,0,1.693.424l.853-3.426c1.014-3.041,6.474-4.56,16.681-4.636a6.616,6.616,0,0,0,6.923,6.105,6.6,6.6,0,0,0,6.923-6.07c11.959.088,16.117,2.911,16.662,4.537l.872,3.49a.873.873,0,0,0,.846.661.847.847,0,0,0,.212-.026A.873.873,0,0,0,52.327,403.662Z" transform="translate(0 -352.395)" fill="#00adb5"/>
        <path id="Path_237" data-name="Path 237" d="M51.964,4.356,72.032,6.974a.967.967,0,0,0,.113.007.99.99,0,0,0,.113-.007L91.341,4.485V7.514a6.358,6.358,0,0,0-1.745,3.83,2.618,2.618,0,0,0,5.235,0,6.357,6.357,0,0,0-1.745-3.83V3.491a.863.863,0,0,0-.065-.325.852.852,0,0,0-.059-.1.863.863,0,0,0-.115-.172.754.754,0,0,0-.1-.08.82.82,0,0,0-.156-.106.776.776,0,0,0-.134-.043.781.781,0,0,0-.127-.042L72.257.008a.975.975,0,0,0-.225,0L51.964,2.625a.873.873,0,0,0,0,1.731Zm41.122,6.987a.872.872,0,1,1-1.745,0,4.052,4.052,0,0,1,.872-2.128A4.053,4.053,0,0,1,93.086,11.344ZM72.145,1.753,85.468,3.491,72.145,5.229,58.822,3.491Z" transform="translate(-45.968 -0.001)" fill="#00adb5"/>
        <path id="Path_238" data-name="Path 238" d="M227.37,307.44a3.541,3.541,0,0,1-4.021,0,.872.872,0,0,0-1.225,1.242,5.2,5.2,0,0,0,6.469,0,.866.866,0,0,0,.005-1.218A.878.878,0,0,0,227.37,307.44Z" transform="translate(-199.182 -275.783)" fill="#00adb5"/>
        <path id="Path_239" data-name="Path 239" d="M104.148,155.491a2.623,2.623,0,0,0-1.745,2.468v3.49a2.622,2.622,0,0,0,1.963,2.535c.467,1.377,1.756,5.11,2.492,6.581,1.386,2.772,5.315,7.463,11.25,7.463s9.865-4.691,11.25-7.463c.736-1.47,2.025-5.2,2.492-6.581a2.622,2.622,0,0,0,1.963-2.535v-3.49a2.623,2.623,0,0,0-1.745-2.468V154.47a.872.872,0,1,0-1.745,0v1.745a.872.872,0,0,0,.873.872.873.873,0,0,1,.872.872v3.49a.873.873,0,0,1-.872.873.87.87,0,0,0-.827.6c-.018.051-1.736,5.2-2.57,6.866-.134.265-3.323,6.5-9.69,6.5s-9.557-6.233-9.69-6.5c-.835-1.67-2.552-6.814-2.57-6.866a.871.871,0,0,0-.827-.6.873.873,0,0,1-.872-.873v-3.49a.873.873,0,0,1,.872-.872.872.872,0,0,0,.872-.872V154.47a.872.872,0,1,0-1.745,0Z" transform="translate(-91.932 -137.892)" fill="#00adb5"/>
        <path id="Path_240" data-name="Path 240" d="M120.343,59.73a.872.872,0,0,0-.873.872V66.71a.873.873,0,0,0,.483.781,34.88,34.88,0,0,0,26.956,0,.873.873,0,0,0,.483-.781V60.6a.873.873,0,0,0-1.745,0v5.543a33.458,33.458,0,0,1-24.431,0V60.6A.872.872,0,0,0,120.343,59.73Z" transform="translate(-107.255 -53.623)" fill="#00adb5"/>
      </g>
    </g>
  </g>
</svg>
