<svg xmlns="http://www.w3.org/2000/svg" width="349.234" height="242.123" viewBox="0 0 349.234 242.123">
  <g id="undraw_reading_time_gvg0" transform="translate(0 0)">
    <path id="Path_248" data-name="Path 248" d="M212.305,617.372s-44.42-20.449-28.816-34.63S212.305,617.372,212.305,617.372Z" transform="translate(-171.606 -407.616)" fill="#96bc0c"/>
    <path id="Path_249" data-name="Path 249" d="M249.116,588.519s-20.417-67.084,9.648-63.876S249.116,588.519,249.116,588.519Z" transform="translate(-209.19 -373.99)" fill="#96bc0c"/>
    <path id="Path_250" data-name="Path 250" d="M221.829,671.266l.857,11.222.014.194a51.567,51.567,0,0,0,.265,5.247c1.163,11.446,6.162,16.663,12,16.663s10.623-5.216,11.786-16.663a51.562,51.562,0,0,0,.265-5.247l.007-.156,0-.037.86-11.222Z" transform="translate(-196.79 -462.687)" fill="#495464"/>
    <path id="Path_251" data-name="Path 251" d="M248.34,699.637l0,.037-.007.156a51.56,51.56,0,0,1-.265,5.247h-23.79a51.546,51.546,0,0,1-.265-5.247l-.014-.194Z" transform="translate(-198.1 -479.837)" fill="#fff"/>
    <path id="Path_252" data-name="Path 252" d="M955.883,647.564s-34.391-15.832-22.309-26.811S955.883,647.564,955.883,647.564Z" transform="translate(-625.463 -430.945)" fill="#96bc0c"/>
    <path id="Path_253" data-name="Path 253" d="M984.382,625.225s-15.807-51.938,7.47-49.454S984.382,625.225,984.382,625.225Z" transform="translate(-654.561 -404.911)" fill="#96bc0c"/>
    <path id="Path_254" data-name="Path 254" d="M963.256,689.289l.663,8.688.01.15a39.9,39.9,0,0,0,.205,4.062c.9,8.862,4.771,12.9,9.294,12.9s8.225-4.039,9.125-12.9a39.9,39.9,0,0,0,.205-4.062l.005-.121,0-.029.666-8.688Z" transform="translate(-644.96 -473.582)" fill="#495464"/>
    <path id="Path_255" data-name="Path 255" d="M983.783,711.255l0,.029-.005.121a39.9,39.9,0,0,1-.205,4.062H965.149a39.921,39.921,0,0,1-.205-4.062l-.01-.15Z" transform="translate(-645.974 -486.859)" fill="#fff"/>
    <path id="Path_256" data-name="Path 256" d="M444.59,303.188V287.926h-2.373v15.262a3.164,3.164,0,1,0,2.373,0Z" transform="translate(-328.813 -230.97)" fill="#df6265"/>
    <path id="Path_257" data-name="Path 257" d="M383.637,414.9H367.42V217.926h-6.328V414.9H344.875a14.635,14.635,0,0,0-14.635,14.635h68.031A14.635,14.635,0,0,0,383.637,414.9Z" transform="translate(-262.321 -188.657)" fill="#f86d70"/>
    <path id="Path_258" data-name="Path 258" d="M330.323,202.464h67.966l-4.156-51.949a7.2,7.2,0,0,0-7.138-6.59H341.617a7.2,7.2,0,0,0-7.138,6.589Z" transform="translate(-262.371 -143.926)" fill="#00adb5"/>
    <path id="Path_259" data-name="Path 259" d="M558.037,522.345h0a4.893,4.893,0,0,0-5.639,4.089l-1.914,12.557,6.511,1.727,4.77-11.7a4.893,4.893,0,0,0-3.728-6.674Z" transform="translate(-395.452 -372.629)" fill="#a0616a"/>
    <path id="Path_260" data-name="Path 260" d="M499.856,558.705c3.613,14.359,2.058,27.492-11.4,37.8-16.137-4.448-26.87-15.181-33.419-30.779a7.785,7.785,0,0,1,4.49-10.32h0a7.782,7.782,0,0,1,8.567,2.208l15.834,18.275,7.428-18.427Z" transform="translate(-337.393 -392.366)" fill="#00adb5"/>
    <path id="Path_261" data-name="Path 261" d="M738.417,723.5c-14.735-.783-23.888-5.842-26.1-16.217l2.373-4.351,27.171,12.378a3.8,3.8,0,0,1-.267,7.027Z" transform="translate(-493.272 -481.829)" fill="#495464"/>
    <path id="Path_262" data-name="Path 262" d="M698.622,718.769c-7.656-.232-15.018-.16-21.995.312a4.66,4.66,0,0,1-4.963-4.278l-.419-5.235-5.933-9.493,5.142-5.142c8.641,8.606,18.118,15.835,29.373,20.132a2.03,2.03,0,0,1-1.206,3.7Z" transform="translate(-464.862 -476.993)" fill="#495464"/>
    <path id="Path_263" data-name="Path 263" d="M540.645,629.786c-9.776,17.493-19.391,29.285-32.038,35.6-15.56,5.135-26.932-1.668-35.8-15.623l25.709-17.008,3.758,3.758L536.333,610.6a4.348,4.348,0,0,1,6.116.136L571.5,646.4l-3.56,5.933Z" transform="translate(-348.502 -425.294)" fill="#495464"/>
    <path id="Path_264" data-name="Path 264" d="M487.236,528.508,473.788,507.94l3.164-5.933,17.8,18.59Z" transform="translate(-286.391 -303.448)" fill="#495464"/>
    <circle id="Ellipse_11" data-name="Ellipse 11" cx="13.448" cy="13.448" r="13.448" transform="translate(109.873 132.505)" fill="#a0616a"/>
    <path id="Path_265" data-name="Path 265" d="M456.342,549.941l-15.03-5.142a18.667,18.667,0,0,0,2.769-11.866h12.261A64.525,64.525,0,0,0,456.342,549.941Z" transform="translate(-329.461 -379.069)" fill="#a0616a"/>
    <path id="Path_266" data-name="Path 266" d="M474.99,599.837c-2.253.925-2.418,3.925-4.549,4.944-10.3,4.928-21.2,8.926-28.676,16.019-17.48-11.87-33.681-48.736-12.657-64.867,7.176,4.2,13.587,7.2,13.448,0Z" transform="translate(-316.071 -392.972)" fill="#00adb5"/>
    <path id="Path_267" data-name="Path 267" d="M470.718,601.96l-7.317-2.571-14.437,11.273-6.472-23.3c-.449-1.616-1.176-.8-2.22.326a7.778,7.778,0,0,0-13.053,5.362c-.77,16.9,4.326,31.2,17,42.133,16.576-3.549,23.61-14.748,26.5-29.269l-.784-.522Q470.368,603.71,470.718,601.96Z" transform="translate(-320.896 -410.917)" opacity="0.2"/>
    <path id="Path_268" data-name="Path 268" d="M443.663,467.629c4.436,1.013,9.485,2.449,9.768,3.784,4.563,1.15,8.007,3.9,8.711,8.1a2.515,2.515,0,0,1-2.523,2.916c-2.482-.032-6.207-.27-8.667-1.3-7.146,4.6-8.345,16.58-5.225,24.732l-4.911-.45-5.081-14.873-1.3,14.288-11.206-1.482,1.443-18.22a27.146,27.146,0,0,1,4.263-12.037,10.251,10.251,0,0,1,.8-1.039,14.243,14.243,0,0,1,13.923-4.425Z" transform="translate(-318.532 -339.367)" fill="#495464"/>
    <path id="Path_269" data-name="Path 269" d="M380.285,404.113l12.308,14.47,18.462-21.788L398.58,381.659Z" transform="translate(-229.871 -230.701)" fill="#3f3d56"/>
    <path id="Path_270" data-name="Path 270" d="M586.245,544.615,571.608,532.64c.832-2,4.823-1.331,4.823-1.331l11.457,11.615a6.268,6.268,0,0,1,1.017,1.358h0Z" transform="translate(-408.221 -378.023)" fill="#f2f2f2"/>
    <path id="Path_271" data-name="Path 271" d="M556.662,543.184,540.03,530.211l-18.462,27.942,17.381,11.726a3.887,3.887,0,0,0,3.326-.5l16.965-25.946Z" transform="translate(-377.973 -377.424)" fill="#495464"/>
    <rect id="Rectangle_1461" data-name="Rectangle 1461" width="0.27" height="13.109" transform="matrix(0.584, -0.812, 0.812, 0.584, 163.974, 157.056)" fill="#00adb5"/>
    <rect id="Rectangle_1462" data-name="Rectangle 1462" width="25.325" height="0.27" transform="matrix(0.552, -0.834, 0.834, 0.552, 160.948, 188.472)" fill="#00adb5"/>
    <rect id="Rectangle_1463" data-name="Rectangle 1463" width="0.27" height="14.038" transform="translate(148.006 181.003) rotate(-53.656)" fill="#00adb5"/>
    <rect id="Rectangle_1464" data-name="Rectangle 1464" width="25.33" height="0.269" transform="translate(147.642 177.992) rotate(-55.162)" fill="#00adb5"/>
    <rect id="Rectangle_1465" data-name="Rectangle 1465" width="0.166" height="17.864" transform="translate(166.47 153.244) rotate(-47.455)" fill="#b3b3b3"/>
    <rect id="Rectangle_1466" data-name="Rectangle 1466" width="0.166" height="18.348" transform="translate(165.377 153.35) rotate(-48.561)" fill="#b3b3b3"/>
    <rect id="Rectangle_1467" data-name="Rectangle 1467" width="0.166" height="18.589" transform="matrix(0.64, -0.768, 0.768, 0.64, 164.518, 153.595)" fill="#b3b3b3"/>
    <path id="Path_272" data-name="Path 272" d="M534.272,591.755h0a4.893,4.893,0,0,0-6.848,1.277l-7.112,10.525,5.142,4.351,9.325-8.526a4.893,4.893,0,0,0-.507-7.627Z" transform="translate(-377.214 -414.095)" fill="#a0616a"/>
    <path id="Path_273" data-name="Path 273" d="M470.718,599.917c-2.89,14.521-9.925,25.72-26.5,29.269-12.673-10.936-17.769-25.234-17-42.133a7.786,7.786,0,0,1,8.481-7.4h0a7.782,7.782,0,0,1,6.793,5.667l6.472,23.3,14.61-13.465Z" transform="translate(-320.896 -407.291)" fill="#00adb5"/>
    <path id="Path_274" data-name="Path 274" d="M349.077,610.829H0v-.863H349.234Z" transform="translate(0 -368.706)" fill="#3f3d56"/>
    <path id="Path_275" data-name="Path 275" d="M618.6,235.433a.792.792,0,0,0-.791.791v61.7a.792.792,0,0,0,.791.791h51.419a.792.792,0,0,0,.791-.791v-61.7a.792.792,0,0,0-.791-.791Z" transform="translate(-436.15 -199.239)" fill="#495464"/>
    <path id="Path_276" data-name="Path 276" d="M633.312,301.956h40.74V250.933h-40.74Z" transform="translate(-445.519 -208.609)" fill="#fff"/>
    <path id="Path_277" data-name="Path 277" d="M835.523,276.433a.473.473,0,0,0-.472.472v30.7a.473.473,0,0,0,.472.472h36.837a.473.473,0,0,0,.472-.472v-30.7a.473.473,0,0,0-.472-.472Z" transform="translate(-567.464 -224.023)" fill="#e6e6e6"/>
    <path id="Path_278" data-name="Path 278" d="M844.3,285.687v24.322h30.462V285.687Z" transform="translate(-573.058 -229.616)" fill="#495464"/>
    <path id="Path_279" data-name="Path 279" d="M677.985,221.347H663.6a1.973,1.973,0,0,1-1.713-2.966l7.193-12.459.018-.031a1.954,1.954,0,0,1,1.5-.949h.01c.061-.006.124-.009.187-.009a1.957,1.957,0,0,1,1.713.989l7.193,12.459a1.978,1.978,0,0,1-1.713,2.966Zm-14.784-1.98a.407.407,0,0,0,.055.2.389.389,0,0,0,.343.2h14.387a.389.389,0,0,0,.343-.2.406.406,0,0,0,.054-.2.39.39,0,0,0-.054-.2l-7.193-12.459a.4.4,0,0,0-.685,0l-7.193,12.459A.388.388,0,0,0,663.2,219.368Z" transform="translate(-462.629 -180.803)" fill="#495464"/>
    <circle id="Ellipse_12" data-name="Ellipse 12" cx="1.187" cy="1.187" r="1.187" transform="translate(206.976 25.514)" fill="#e6e6e6"/>
    <path id="Path_280" data-name="Path 280" d="M879.11,265.332h-7.8a1.07,1.07,0,0,1-.929-1.608l3.9-6.755.01-.017a1.059,1.059,0,0,1,.812-.514h.006c.033,0,.067,0,.1,0a1.061,1.061,0,0,1,.929.536l3.9,6.755a1.072,1.072,0,0,1-.929,1.608Zm-8.015-1.073a.221.221,0,0,0,.029.108.211.211,0,0,0,.186.107h7.8a.211.211,0,0,0,.186-.107.221.221,0,0,0,.03-.108.212.212,0,0,0-.03-.106l-3.9-6.755a.215.215,0,0,0-.372,0l-3.9,6.755a.211.211,0,0,0-.03.106Z" transform="translate(-588.733 -211.933)" fill="#e6e6e6"/>
    <circle id="Ellipse_13" data-name="Ellipse 13" cx="0.643" cy="0.643" r="0.643" transform="translate(285.834 45.25)" fill="#e6e6e6"/>
    <path id="Path_281" data-name="Path 281" d="M632.672,319.27a10.478,10.478,0,0,1,6.037-5.667,10.355,10.355,0,0,1,8.627.537c3.087,1.638,5.554,4.214,8.689,5.781a22.221,22.221,0,0,0,9.8,2.309,21.943,21.943,0,0,0,10.993-2.853.594.594,0,0,0-.6-1.025,21.1,21.1,0,0,1-19.947.366c-3.145-1.649-5.637-4.311-8.84-5.857a11.422,11.422,0,0,0-8.793-.493,11.8,11.8,0,0,0-7.115,6.586C631.24,319.661,632.387,319.969,632.672,319.27Z" transform="translate(-444.413 -245.35)" fill="#e6e6e6"/>
    <path id="Path_282" data-name="Path 282" d="M630.988,353.076a45.171,45.171,0,0,1,19.99.069c5.841,1.354,11.87,3.791,17.891,1.974a10.877,10.877,0,0,0,6.538-4.935c.37-.669-.655-1.268-1.025-.6-2.6,4.706-8.7,5.5-13.514,4.727-3.217-.516-6.318-1.55-9.485-2.291a46.228,46.228,0,0,0-20.712-.09c-.745.166-.43,1.311.315,1.144Z" transform="translate(-443.667 -268.064)" fill="#e6e6e6"/>
    <path id="Path_283" data-name="Path 283" d="M629.9,288.973a46.921,46.921,0,0,1,19,.676c5.812,1.424,11.494,4.677,17.639,4.116a11.363,11.363,0,0,0,7.6-3.483c.505-.569-.331-1.411-.839-.839a10.035,10.035,0,0,1-6.534,3.114,20.766,20.766,0,0,1-8.335-1.122c-2.993-.926-5.9-2.1-8.943-2.863a48.056,48.056,0,0,0-19.9-.743c-.751.128-.433,1.272.315,1.144Z" transform="translate(-443.008 -230.485)" fill="#e6e6e6"/>
    <path id="Path_284" data-name="Path 284" d="M857.453,283.121a20.686,20.686,0,0,1,5.428,10.12,20.431,20.431,0,0,1-4.417,17.348c-.492.579.344,1.422.839.839a21.918,21.918,0,0,0,5.023-11.341,21.633,21.633,0,0,0-6.033-17.806c-.536-.546-1.374.293-.839.839Z" transform="translate(-580.902 -227.451)" fill="#e6e6e6"/>
    <path id="Path_285" data-name="Path 285" d="M893.571,278.1a15.291,15.291,0,0,0-5.959,11.425,18.752,18.752,0,0,0,4.314,12.7,24.707,24.707,0,0,0,5.873,5.3c.641.419,1.236-.608.6-1.025a21.883,21.883,0,0,1-8.392-9.806,15.867,15.867,0,0,1-.034-12.158,12.99,12.99,0,0,1,4.2-5.419c.609-.447.018-1.477-.6-1.025Z" transform="translate(-599.216 -224.962)" fill="#e6e6e6"/>
    <circle id="Ellipse_14" data-name="Ellipse 14" cx="5.537" cy="5.537" r="5.537" transform="translate(205.394 53.993)" fill="#e6e6e6"/>
  </g>
</svg>
