<svg xmlns="http://www.w3.org/2000/svg" width="141" height="141" viewBox="0 0 141 141">
  <g id="Group_8" data-name="Group 8" transform="translate(-144 -538.049)">
    <g id="x" transform="translate(134 538.049)">
      <path id="Path_163" data-name="Path 163" d="M70.5,15.667A54.833,54.833,0,1,1,15.667,70.5,54.833,54.833,0,0,1,70.5,15.667ZM70.5,0A70.543,70.543,0,1,0,141,70.5,70.5,70.5,0,0,0,70.5,0Z" transform="translate(10)" fill="#495464" fill-rule="evenodd"/>
      <path id="Path_164" data-name="Path 164" d="M67.205,55.666A8.1,8.1,0,1,1,55.754,67.126L37.282,48.646,18.811,67.117A8.1,8.1,0,1,1,7.36,55.658l18.472-18.48L7.36,18.715A8.1,8.1,0,0,1,18.811,7.256l18.472,18.48L55.754,7.264A8.1,8.1,0,0,1,67.205,18.723L48.733,37.179Z" transform="translate(43.217 33.26)" fill="#df6265" fill-rule="evenodd"/>
    </g>
  </g>
</svg>
