<svg xmlns="http://www.w3.org/2000/svg" width="105.07" height="138.57" viewBox="0 0 105.07 138.57">
  <g id="test-svgrepo-com" transform="translate(-55)">
    <path id="Path_169" data-name="Path 169" d="M160.07,0H55V138.57h76.138l6.091-22.841,22.841-6.091Z" fill="#495464"/>
    <path id="Path_170" data-name="Path 170" d="M305,360v28.932L333.932,360Z" transform="translate(-173.862 -250.362)" fill="#0095b7"/>
    <path id="Path_171" data-name="Path 171" d="M234.787,77.068H191a2.284,2.284,0,0,1,0-4.568h43.79a2.284,2.284,0,0,1,0,4.568Z" transform="translate(-92.991 -50.42)" fill="#ededed"/>
    <path id="Path_172" data-name="Path 172" d="M119.353,69.251a2.277,2.277,0,0,1-1.615-.669l-4.568-4.568a2.284,2.284,0,1,1,3.23-3.23l2.953,2.953L129.92,53.17a2.284,2.284,0,0,1,3.23,3.23L120.968,68.582A2.277,2.277,0,0,1,119.353,69.251Z" transform="translate(-39.989 -36.512)" fill="#96bc0c"/>
    <path id="Path_173" data-name="Path 173" d="M226.989,147.068H179.784a2.284,2.284,0,0,1,0-4.568h47.205a2.284,2.284,0,1,1,0,4.568Z" transform="translate(-85.193 -99.102)" fill="#ededed"/>
    <path id="Path_177" data-name="Path 177" d="M0,0H11.877V12.791H0Z" transform="translate(73.273 39.287)" fill="#ededed"/>
    <path id="Path_174" data-name="Path 174" d="M226.989,217.068H179.784a2.284,2.284,0,0,1,0-4.568h47.205a2.284,2.284,0,1,1,0,4.568Z" transform="translate(-85.193 -147.783)" fill="#ededed"/>
    <path id="Path_178" data-name="Path 178" d="M0,0H11.877V11.877H0Z" transform="translate(73.273 61.215)" fill="#ededed"/>
    <path id="Path_175" data-name="Path 175" d="M226.989,287.068H179.784a2.284,2.284,0,1,1,0-4.568h47.205a2.284,2.284,0,1,1,0,4.568Z" transform="translate(-85.193 -196.465)" fill="#ededed"/>
    <path id="Path_179" data-name="Path 179" d="M0,0H11.877V11.877H0Z" transform="translate(73.273 82.229)" fill="#ededed"/>
    <path id="Path_176" data-name="Path 176" d="M207.194,357.068h-27.41a2.284,2.284,0,0,1,0-4.568h27.41a2.284,2.284,0,0,1,0,4.568Z" transform="translate(-85.193 -245.146)" fill="#ededed"/>
    <path id="Path_180" data-name="Path 180" d="M0,0H11.877V12.791H0Z" transform="translate(73.273 103.243)" fill="#ededed"/>
  </g>
</svg>
