<svg xmlns="http://www.w3.org/2000/svg" width="124.46" height="141" viewBox="0 0 124.46 141">
  <g id="coronavirus-bacteria-svgrepo-com" transform="translate(-5.617 -1.951)">
    <ellipse id="Ellipse_15" data-name="Ellipse 15" cx="49.5" cy="50" rx="49.5" ry="50" transform="translate(17.901 22.951)" fill="#aa494a"/>
    <circle id="Ellipse_16" data-name="Ellipse 16" cx="44.5" cy="44.5" r="44.5" transform="translate(22.901 27.951)" fill="#d36767"/>
    <rect id="Rectangle_1468" data-name="Rectangle 1468" width="5" height="19" transform="translate(64.901 13.951)" fill="#495464"/>
    <rect id="Rectangle_1469" data-name="Rectangle 1469" width="4.717" height="18.872" transform="translate(41.709 19.852) rotate(-23.997)" fill="#495464"/>
    <rect id="Rectangle_1470" data-name="Rectangle 1470" width="4.717" height="18.872" transform="translate(31.279 26.441) rotate(-36.006)" fill="#495464"/>
    <rect id="Rectangle_1471" data-name="Rectangle 1471" width="4.717" height="18.87" transform="matrix(0.5, -0.866, 0.866, 0.5, 15.598, 45.323)" fill="#495464"/>
    <rect id="Rectangle_1472" data-name="Rectangle 1472" width="4.717" height="18.872" transform="translate(8.953 68.947) rotate(-84.001)" fill="#495464"/>
    <rect id="Rectangle_1473" data-name="Rectangle 1473" width="18.872" height="4.717" transform="translate(8.954 76.578) rotate(-5.999)" fill="#495464"/>
    <rect id="Rectangle_1474" data-name="Rectangle 1474" width="18.87" height="4.717" transform="translate(15.597 100.207) rotate(-29.993)" fill="#495464"/>
    <rect id="Rectangle_1475" data-name="Rectangle 1475" width="18.872" height="4.717" transform="matrix(0.588, -0.809, 0.809, 0.588, 31.277, 119.079)" fill="#495464"/>
    <rect id="Rectangle_1476" data-name="Rectangle 1476" width="18.872" height="4.717" transform="translate(41.701 125.674) rotate(-66.001)" fill="#495464"/>
    <rect id="Rectangle_1477" data-name="Rectangle 1477" width="5" height="18" transform="translate(64.901 112.951)" fill="#495464"/>
    <rect id="Rectangle_1478" data-name="Rectangle 1478" width="4.717" height="18.872" transform="translate(82.003 110.358) rotate(-23.997)" fill="#495464"/>
    <rect id="Rectangle_1479" data-name="Rectangle 1479" width="4.717" height="18.872" transform="translate(89.516 106.587) rotate(-36.006)" fill="#495464"/>
    <rect id="Rectangle_1480" data-name="Rectangle 1480" width="4.717" height="18.87" transform="matrix(0.5, -0.866, 0.866, 0.5, 101.392, 94.857)" fill="#495464"/>
    <rect id="Rectangle_1481" data-name="Rectangle 1481" width="4.717" height="18.872" transform="translate(107.478 79.305) rotate(-84.001)" fill="#495464"/>
    <rect id="Rectangle_1482" data-name="Rectangle 1482" width="18.872" height="4.717" transform="translate(107.477 66.221) rotate(-5.999)" fill="#495464"/>
    <rect id="Rectangle_1483" data-name="Rectangle 1483" width="18.87" height="4.717" transform="translate(101.397 50.673) rotate(-29.993)" fill="#495464"/>
    <rect id="Rectangle_1484" data-name="Rectangle 1484" width="18.872" height="4.717" transform="matrix(0.588, -0.809, 0.809, 0.588, 89.504, 38.934)" fill="#495464"/>
    <rect id="Rectangle_1485" data-name="Rectangle 1485" width="18.872" height="4.717" transform="translate(81.997 35.175) rotate(-66.001)" fill="#495464"/>
    <path id="Path_300" data-name="Path 300" d="M6.5,0A6.764,6.764,0,0,1,13,7a6.764,6.764,0,0,1-6.5,7A6.764,6.764,0,0,1,0,7,6.764,6.764,0,0,1,6.5,0Z" transform="translate(60.901 1.951)" fill="#00adb5"/>
    <circle id="Ellipse_18" data-name="Ellipse 18" cx="7.076" cy="7.076" r="7.076" transform="translate(5.617 33.844)" fill="#00adb5"/>
    <path id="Path_298" data-name="Path 298" d="M9.155,43.448a7.076,7.076,0,1,0,9.666,2.59A7.079,7.079,0,0,0,9.155,43.448Z" transform="translate(0 55.029)" fill="#00adb5"/>
    <path id="Path_302" data-name="Path 302" d="M6.5,0A6.764,6.764,0,0,1,13,7a6.764,6.764,0,0,1-6.5,7A6.764,6.764,0,0,1,0,7,6.764,6.764,0,0,1,6.5,0Z" transform="translate(60.901 128.951)" fill="#00adb5"/>
    <path id="Path_299" data-name="Path 299" d="M63,43.448a7.076,7.076,0,1,0,2.59,9.666A7.079,7.079,0,0,0,63,43.448Z" transform="translate(63.542 55.029)" fill="#00adb5"/>
    <path id="Path_301" data-name="Path 301" d="M7.076,0A7.076,7.076,0,1,1,0,7.076,7.076,7.076,0,0,1,7.076,0Z" transform="translate(115.925 33.844)" fill="#00adb5"/>
  </g>
</svg>
